<?xml version="1.0" standalone="no"?>
<!DOCTYPE svg PUBLIC "-//W3C//DTD SVG 20010904//EN"
 "http://www.w3.org/TR/2001/REC-SVG-20010904/DTD/svg10.dtd">
<svg version="1.0" xmlns="http://www.w3.org/2000/svg"
 width="1024.000000pt" height="1024.000000pt" viewBox="0 0 1024.000000 1024.000000"
 preserveAspectRatio="xMidYMid meet">
<metadata>
Created by potrace 1.14, written by Peter Selinger 2001-2017
</metadata>
<g transform="translate(0.000000,1024.000000) scale(0.100000,-0.100000)"
fill="#000000" stroke="none">
<path d="M0 9585 c0 -447 3 -655 10 -655 6 0 24 9 39 21 24 17 32 19 50 10 12
-7 26 -9 32 -6 5 4 21 0 34 -9 13 -9 31 -16 40 -16 9 0 26 -6 38 -14 14 -9 49
-13 100 -12 43 1 81 -2 84 -7 3 -5 15 -6 27 -3 15 4 31 -3 49 -20 15 -14 37
-27 49 -29 12 -3 31 -13 42 -23 12 -11 27 -17 35 -14 8 2 11 0 8 -5 -10 -16 6
-30 75 -65 42 -22 71 -31 77 -25 5 5 16 2 29 -9 11 -11 32 -29 47 -41 15 -13
21 -23 14 -23 -7 0 -4 -6 7 -14 14 -11 21 -11 26 -3 5 8 8 5 8 -6 0 -21 36
-77 57 -90 7 -5 11 -12 8 -17 -3 -4 2 -10 10 -14 8 -3 15 -13 15 -22 0 -9 17
-32 37 -50 36 -33 46 -38 71 -35 6 1 12 -5 12 -14 0 -8 -7 -15 -16 -15 -11 0
-14 -5 -9 -17 15 -37 17 -53 6 -53 -14 0 -15 -37 -1 -45 16 -10 11 -33 -7 -31
-10 0 -24 -12 -34 -33 -9 -20 -18 -29 -21 -21 -3 11 -8 11 -28 -1 -30 -16
-104 -23 -95 -9 3 6 -1 10 -9 10 -8 0 -18 -4 -21 -10 -10 -17 -25 -11 -25 9 0
23 -35 37 -54 21 -8 -6 -18 -10 -22 -8 -5 1 -24 -2 -43 -6 -22 -5 -41 -4 -57
4 -19 11 -26 11 -39 0 -10 -9 -15 -9 -15 -1 0 8 -7 7 -22 -3 -21 -13 -28 -12
-78 11 -50 23 -58 24 -93 12 -22 -7 -49 -14 -61 -14 -56 -3 -67 -6 -62 -14 4
-5 -3 -7 -14 -4 -11 3 -20 0 -20 -6 0 -6 -10 -11 -23 -11 -13 0 -28 -5 -35
-12 -8 -8 -20 -5 -46 15 -19 15 -39 27 -45 27 -17 0 -13 -20 4 -26 14 -6 13
-8 -2 -19 -14 -11 -19 -10 -29 3 -10 14 -13 13 -25 -6 -17 -27 -72 -32 -67 -6
2 10 -3 19 -9 21 -10 4 -13 -148 -13 -738 0 -596 2 -740 12 -727 11 14 21 15
58 8 36 -7 47 -6 57 7 13 16 49 10 38 -7 -9 -15 43 -24 60 -10 9 8 15 8 15 2
0 -6 9 -14 20 -17 11 -4 18 -10 15 -15 -3 -5 10 -12 30 -16 20 -3 35 -12 35
-20 0 -8 9 -14 20 -14 11 0 20 -7 20 -15 0 -8 3 -15 8 -15 4 0 8 -12 8 -26 1
-14 9 -33 18 -43 9 -10 16 -34 16 -54 0 -20 4 -37 9 -37 5 0 12 -13 16 -30 4
-16 15 -32 26 -35 10 -4 19 -14 19 -24 0 -27 67 -91 96 -91 17 0 27 -8 34 -25
5 -14 16 -25 24 -25 10 0 13 -6 10 -15 -4 -10 0 -15 11 -15 11 0 15 5 12 14
-3 8 1 17 9 20 22 9 24 8 24 -10 0 -11 5 -14 16 -10 9 3 18 6 20 6 2 0 4 8 4
19 0 12 7 18 17 17 12 0 19 7 21 21 4 27 38 53 68 53 13 0 35 16 56 41 28 32
44 42 77 46 26 4 47 13 56 26 12 17 17 18 29 8 8 -7 20 -10 25 -7 5 4 13 1 16
-4 4 -7 19 -9 35 -5 18 4 33 1 43 -9 18 -18 42 -22 31 -5 -4 7 0 9 14 5 13 -4
22 -1 25 8 5 13 11 12 44 -4 23 -11 42 -15 47 -9 15 14 26 11 26 -6 0 -21 17
-19 30 5 6 11 21 20 35 20 13 0 32 10 42 23 10 12 26 22 36 23 56 3 66 5 69
21 2 13 7 11 22 -12 13 -20 15 -30 8 -33 -20 -6 -13 -32 8 -32 11 0 20 -5 20
-11 0 -7 -12 -10 -30 -7 -24 4 -30 1 -30 -13 0 -15 5 -17 32 -12 21 4 29 3 24
-5 -4 -6 -12 -9 -19 -7 -8 4 -13 -10 -14 -42 -4 -82 -23 -155 -39 -149 -8 3
-14 -1 -14 -8 0 -8 7 -16 15 -20 8 -3 15 -17 15 -32 0 -22 -3 -24 -14 -15 -8
7 -17 8 -20 3 -3 -5 4 -16 15 -25 21 -18 26 -57 8 -57 -8 0 -10 -12 -6 -36 4
-25 2 -37 -8 -40 -10 -4 -12 -15 -8 -35 4 -21 1 -30 -10 -35 -12 -4 -15 -14
-11 -33 5 -22 -1 -35 -25 -62 -33 -36 -40 -55 -17 -46 12 5 14 -5 12 -51 -3
-59 -14 -77 -28 -45 -4 10 -5 -5 -2 -32 3 -28 1 -68 -4 -88 -6 -21 -6 -35 -1
-32 15 10 10 -7 -7 -27 -14 -14 -14 -20 -4 -33 8 -9 8 -15 2 -15 -6 0 -10 -14
-10 -31 1 -20 -6 -37 -17 -45 -10 -8 -15 -20 -11 -29 3 -9 2 -13 -4 -10 -5 3
-12 -6 -16 -20 -3 -14 -10 -25 -15 -25 -5 0 -9 -7 -9 -16 0 -9 -8 -18 -18 -21
-18 -4 -45 -47 -56 -88 -3 -11 -21 -38 -41 -60 -19 -22 -35 -43 -35 -46 0 -3
-11 -12 -25 -19 -14 -8 -25 -21 -24 -29 3 -31 -14 -81 -27 -81 -8 0 -14 -9
-14 -20 0 -23 -27 -70 -47 -83 -7 -4 -13 -18 -13 -30 0 -13 -6 -29 -12 -35
-10 -10 -10 -17 1 -34 9 -14 10 -23 2 -27 -7 -4 0 -19 19 -39 26 -28 27 -33
12 -42 -15 -8 -15 -9 -1 -10 26 0 39 -24 45 -81 3 -29 11 -57 19 -63 7 -6 15
-22 17 -36 2 -19 10 -26 33 -28 17 -2 35 -8 42 -13 8 -7 15 -4 21 8 12 20 11
21 41 -29 12 -21 30 -38 38 -38 35 0 59 -80 33 -106 -7 -7 -7 -19 -1 -35 6
-18 5 -32 -5 -49 -7 -14 -13 -33 -14 -42 0 -10 -7 -18 -15 -18 -8 0 -15 -8
-15 -17 0 -9 -12 -29 -26 -44 -15 -16 -28 -38 -29 -51 -4 -37 -4 -38 -20 -38
-8 0 -15 -8 -15 -18 0 -10 -9 -25 -20 -35 -11 -9 -20 -23 -20 -31 0 -7 -12
-25 -26 -39 -14 -14 -23 -31 -19 -37 3 -5 -1 -10 -10 -10 -13 0 -16 -6 -11
-24 5 -19 -3 -32 -35 -65 -23 -23 -48 -41 -55 -41 -17 0 -18 -22 -3 -37 8 -8
6 -17 -9 -33 -11 -12 -18 -30 -15 -40 4 -15 1 -18 -19 -13 -17 3 -19 2 -9 -5
8 -6 11 -17 7 -27 -3 -10 -9 -15 -12 -12 -4 3 -12 0 -19 -6 -9 -9 -10 -18 -2
-35 7 -16 7 -26 -1 -34 -8 -8 -1 -20 27 -47 21 -20 43 -46 49 -58 8 -14 18
-19 30 -16 14 3 21 -2 25 -17 3 -12 10 -19 16 -16 16 10 50 -16 43 -33 -4 -10
-1 -13 12 -8 14 5 16 2 12 -21 -2 -15 -5 -28 -5 -30 -1 -1 -10 2 -21 8 -14 8
-20 8 -20 0 0 -6 7 -13 15 -16 10 -4 15 -20 15 -46 0 -33 -3 -38 -13 -29 -20
16 -50 -21 -49 -59 0 -16 -4 -30 -11 -30 -8 0 -8 -3 1 -12 7 -7 12 -20 12 -31
0 -14 -5 -17 -23 -12 -18 6 -20 5 -9 -6 7 -8 12 -42 12 -91 0 -43 4 -78 8 -78
4 0 7 -29 5 -65 -1 -38 2 -65 8 -65 5 0 3 -10 -5 -22 -15 -25 -31 -85 -28
-105 2 -7 -6 -31 -17 -55 -24 -55 -32 -88 -20 -88 6 0 5 -8 -1 -19 -6 -13 -7
-22 0 -26 5 -3 6 -13 3 -21 -3 -9 0 -19 6 -23 7 -5 13 -22 13 -39 1 -27 5 -31
37 -37 76 -13 111 -26 111 -40 0 -8 7 -15 15 -15 8 0 15 -7 15 -15 0 -8 9 -19
20 -25 11 -6 20 -17 20 -24 0 -8 7 -19 15 -26 8 -7 12 -17 9 -22 -4 -6 2 -7
16 -3 20 6 22 4 17 -14 -3 -14 0 -21 9 -21 7 0 26 -18 40 -40 15 -22 31 -40
36 -40 6 0 8 -11 6 -24 -4 -19 -1 -23 11 -18 13 5 14 3 4 -9 -7 -9 -14 -31
-17 -50 -8 -63 -19 -112 -30 -133 -20 -38 -57 -86 -67 -86 -22 0 -55 -42 -57
-74 -3 -35 12 -46 65 -46 12 0 26 -7 31 -16 8 -14 10 -14 21 0 8 9 20 16 27
16 8 0 14 5 14 11 0 7 10 5 25 -5 13 -9 36 -17 50 -18 27 -2 33 -13 12 -21 -9
-3 -8 -8 4 -18 25 -21 34 -59 15 -59 -23 0 -20 -9 9 -32 14 -11 25 -25 25 -33
0 -7 7 -16 15 -19 12 -4 14 -14 9 -41 -5 -28 -3 -35 10 -35 20 0 20 -1 1 -36
-8 -16 -15 -37 -15 -46 0 -10 -5 -18 -10 -18 -6 0 -25 -15 -43 -34 -32 -34
-47 -39 -157 -55 -68 -10 -110 -30 -110 -54 0 -11 -6 -17 -17 -15 -12 2 -19
-4 -21 -19 -2 -13 -7 -23 -12 -23 -5 0 -7 -7 -4 -15 4 -8 1 -22 -6 -30 -6 -8
-9 -23 -5 -35 4 -11 2 -20 -4 -20 -6 0 -11 -7 -11 -16 0 -8 -4 -13 -9 -10 -12
8 -28 -14 -36 -49 -4 -17 -14 -35 -22 -42 -9 -7 -11 -13 -4 -18 6 -3 11 -17
11 -30 0 -12 7 -25 15 -29 8 -3 12 -12 9 -20 -6 -17 26 -77 37 -71 4 3 10 -3
13 -12 4 -9 1 -20 -6 -24 -8 -5 -9 -11 -1 -21 6 -7 11 -20 11 -28 2 -41 10
-73 20 -79 8 -5 3 -16 -13 -33 -14 -15 -25 -34 -25 -43 0 -8 -4 -15 -9 -15 -5
0 -12 -8 -15 -17 -4 -10 -17 -37 -31 -61 -44 -76 -67 -72 436 -72 392 0 449 2
449 15 0 8 7 15 15 15 18 0 18 1 5 35 -9 23 -7 28 9 32 11 3 22 15 25 26 9 34
7 40 -11 33 -12 -4 -10 0 6 14 15 13 31 18 43 14 14 -4 21 0 25 16 3 13 9 17
13 11 6 -11 60 61 60 80 0 5 4 9 8 9 15 0 12 78 -4 84 -8 3 -14 16 -14 30 0
14 -4 28 -10 31 -13 8 -13 45 0 45 15 0 50 38 50 55 0 8 -7 15 -16 15 -13 0
-14 -3 -5 -13 6 -8 8 -17 4 -20 -10 -11 -45 -8 -38 2 3 5 0 13 -6 17 -9 5 -10
-1 -6 -23 8 -38 -11 -60 -29 -35 -8 9 -14 26 -14 36 0 11 -10 30 -21 43 -18
18 -20 25 -9 38 10 12 10 15 -3 15 -9 0 -19 -9 -22 -20 -4 -11 -16 -20 -28
-21 -94 -4 -143 16 -131 53 4 13 1 18 -8 16 -19 -4 -68 46 -68 70 0 11 -7 22
-15 26 -35 13 -2 111 42 122 18 5 23 12 20 25 -3 12 0 19 9 19 9 0 11 6 7 18
-6 15 -5 15 10 4 14 -12 20 -10 46 19 21 22 27 36 21 44 -15 18 -2 24 36 18
32 -5 40 1 35 30 -2 13 11 8 28 -11 13 -15 20 -16 38 -7 13 7 22 14 20 16 -1
2 10 -9 25 -26 16 -18 22 -32 15 -34 -7 -2 -15 -9 -19 -15 -5 -6 -8 -1 -8 12
0 12 -4 22 -10 22 -5 0 -10 -6 -10 -13 0 -20 21 -36 38 -30 12 5 14 0 8 -30
-5 -28 -3 -38 10 -45 14 -8 14 -12 3 -33 -7 -13 -13 -28 -14 -34 0 -5 -4 -20
-8 -32 -5 -13 -3 -31 3 -43 9 -16 8 -20 -5 -20 -9 0 -13 -5 -10 -10 3 -5 1
-10 -4 -10 -6 0 -11 -11 -11 -24 0 -14 -5 -28 -10 -31 -6 -4 -8 -11 -4 -16 4
-6 10 -6 17 0 17 13 87 -19 87 -40 0 -10 8 -15 22 -15 13 1 23 -4 23 -9 0 -19
43 -66 50 -55 3 5 3 15 0 20 -9 15 13 12 40 -6 15 -9 25 -26 25 -39 0 -18 7
-24 36 -30 21 -3 50 -20 69 -39 37 -38 69 -92 60 -105 -3 -5 13 -12 36 -16 31
-5 45 -3 59 10 10 9 24 14 31 9 7 -4 17 0 24 9 6 9 24 19 39 23 26 6 27 5 17
-15 -14 -25 -103 -94 -180 -139 -31 -18 -72 -50 -92 -72 -20 -22 -43 -40 -50
-40 -31 0 -92 -29 -117 -54 l-27 -26 300 2 299 3 17 80 c21 100 38 157 50 169
5 6 9 17 9 26 0 9 15 34 33 56 18 21 43 53 55 70 12 18 34 34 50 37 23 5 36
22 80 106 29 55 52 107 52 115 0 9 9 33 20 53 11 21 20 46 20 55 0 10 4 18 9
18 8 0 36 52 61 115 31 78 105 216 125 235 14 13 25 31 25 41 0 17 29 79 41
89 4 3 16 25 28 50 12 25 25 52 30 60 32 53 82 171 77 179 -4 5 -2 12 3 16 7
3 7 15 1 30 -7 18 -4 28 13 47 12 13 22 30 22 38 0 8 9 16 20 18 11 2 34 21
50 43 17 22 36 46 43 54 6 7 12 17 12 22 1 4 14 19 30 33 17 13 30 31 30 40 0
23 48 70 88 87 76 32 80 38 70 96 -5 28 -14 56 -19 61 -5 6 -9 21 -9 34 0 29
-29 120 -41 128 -5 3 -9 15 -9 27 -1 12 -14 60 -29 106 -29 86 -62 133 -178
259 -24 25 -43 51 -43 59 0 7 -7 16 -16 20 -9 3 -25 24 -36 47 -31 65 -56 109
-67 115 -6 4 -17 22 -25 42 -8 19 -24 43 -35 53 -12 11 -21 25 -21 31 0 7 -7
18 -15 25 -8 7 -15 20 -15 30 0 10 -7 23 -15 30 -8 7 -15 21 -15 31 0 11 -5
19 -10 19 -6 0 -15 10 -20 23 -6 12 -23 45 -40 72 -16 28 -37 66 -45 85 -9 19
-21 42 -26 50 -5 8 -12 22 -15 30 -3 8 -9 22 -14 30 -20 32 -50 103 -50 116 0
8 -4 14 -10 14 -5 0 -10 7 -10 15 0 17 -60 135 -76 150 -6 5 -17 31 -24 57 -7
27 -15 48 -17 48 -3 0 -13 -10 -22 -22 -14 -16 -32 -23 -77 -26 l-59 -4 -73
72 c-67 68 -102 117 -102 145 0 6 -11 22 -25 35 -14 13 -25 29 -25 35 0 7 -12
28 -27 48 -16 20 -46 61 -68 91 -22 30 -43 55 -47 56 -5 0 -8 15 -8 34 0 19
-4 38 -10 41 -5 3 -10 15 -10 26 0 10 -4 27 -9 37 -17 33 -30 67 -40 102 -16
59 -56 167 -68 182 -6 7 -14 23 -17 36 -4 12 -12 22 -17 22 -5 0 -9 15 -9 34
0 19 -4 37 -8 40 -5 3 -17 36 -26 73 -10 37 -21 76 -26 85 -5 9 -13 36 -16 60
-4 24 -12 46 -18 50 -7 5 -7 8 -1 8 6 0 9 16 7 38 -2 20 0 55 5 77 13 57 -9
259 -28 271 -11 6 -12 91 -1 96 4 2 18 18 31 36 45 64 142 78 163 23 25 -66
73 -153 123 -225 30 -44 55 -87 55 -95 0 -9 11 -29 25 -45 14 -16 25 -33 25
-39 0 -5 22 -30 48 -55 89 -87 82 -95 76 90 -3 89 -6 222 -8 295 -5 180 -14
250 -33 257 -19 8 -11 63 12 80 11 8 13 23 9 64 -7 52 -19 67 -27 35 -3 -10
-5 -3 -6 16 -1 20 6 42 17 54 12 14 19 43 23 103 4 66 10 89 26 106 29 32 55
87 49 104 -3 7 0 28 6 45 9 26 8 33 -6 41 -19 11 -21 46 -4 101 10 32 10 41 0
45 -7 2 -10 13 -7 25 3 12 1 36 -4 52 l-9 30 -1 -27 c-1 -20 -5 -26 -16 -22
-24 9 -28 43 -9 72 10 15 23 59 29 99 11 67 10 71 -6 62 -10 -5 -21 -18 -24
-29 -3 -11 -12 -20 -19 -20 -8 0 -19 -7 -26 -15 -10 -12 -14 -12 -25 -1 -8 8
-17 25 -20 39 -5 19 -2 28 14 37 12 6 21 20 21 30 0 11 3 20 8 20 4 0 5 22 4
50 -4 45 -2 50 17 50 27 0 47 45 32 75 -5 11 -12 37 -16 58 -7 46 -17 47 -38
2 -21 -43 -21 -46 -3 -39 7 3 16 -2 19 -10 4 -11 -4 -21 -24 -32 -33 -16 -51
-12 -31 8 7 7 12 20 12 30 0 10 4 26 9 36 5 9 23 55 40 103 31 84 40 146 21
134 -13 -8 -13 3 4 58 10 34 11 48 2 52 -8 4 -8 7 1 11 7 3 10 16 7 33 -3 15
3 54 15 89 12 34 21 74 21 89 0 29 103 241 126 259 8 6 14 19 14 28 0 18 83
106 100 106 14 0 13 13 -2 28 -9 9 -7 12 10 12 12 0 22 -4 22 -10 0 -5 7 -10
16 -10 12 0 15 6 10 26 -9 33 9 54 44 54 24 0 27 3 23 21 -5 19 -2 20 48 17
52 -3 54 -2 57 25 2 16 -1 27 -9 27 -7 0 -10 3 -7 6 3 3 15 0 26 -7 17 -10 26
-7 68 21 27 18 52 38 56 45 10 17 48 7 48 -12 0 -11 4 -11 20 -3 13 7 20 21
20 40 0 39 48 67 81 48 18 -11 23 -10 39 10 10 12 23 22 28 22 5 0 12 7 16 15
8 22 26 18 26 -5 0 -23 29 -27 48 -8 9 9 15 9 23 1 8 -8 7 -17 -5 -34 -21 -31
-22 -57 -1 -39 12 10 16 8 25 -15 14 -38 44 -30 48 13 3 26 7 32 19 28 9 -4
22 -1 31 6 12 10 16 10 19 1 3 -7 11 -13 19 -13 8 0 14 -10 14 -25 0 -31 13
-31 52 -4 31 23 49 19 28 -6 -10 -12 -10 -15 1 -15 7 0 33 19 56 42 24 23 43
37 43 31 0 -6 -7 -18 -15 -26 -12 -13 -10 -15 18 -20 18 -2 39 -1 48 4 9 5 20
4 27 -3 10 -10 38 -11 144 -7 32 1 56 -4 75 -17 20 -13 48 -19 98 -21 86 -2
185 -17 212 -31 16 -9 28 -8 52 4 18 9 39 13 49 9 9 -4 28 -9 41 -11 14 -2 29
-10 33 -19 5 -8 16 -15 24 -15 8 0 12 5 9 10 -9 15 4 30 21 23 8 -3 13 -12 10
-19 -3 -9 4 -16 19 -20 36 -9 55 2 55 30 0 23 3 24 28 16 15 -5 64 -11 109
-14 52 -3 91 -11 105 -20 13 -10 17 -16 9 -16 -8 0 -12 -3 -8 -6 3 -3 14 -1
24 5 10 6 12 11 6 11 -7 0 -13 7 -13 16 0 13 6 15 28 9 15 -4 50 -6 77 -5 28
1 55 2 60 1 6 -1 65 -3 132 -5 67 -2 132 -8 145 -12 36 -12 135 -11 227 3 77
12 86 12 129 -7 36 -16 48 -18 60 -8 13 11 15 10 9 -4 -5 -13 0 -19 18 -24 14
-3 25 -10 25 -15 0 -5 9 -9 20 -9 13 0 17 -5 14 -14 -3 -8 4 -21 18 -30 33
-22 128 -114 128 -125 0 -5 -9 -11 -20 -14 -12 -3 -20 -14 -20 -27 0 -15 -5
-20 -14 -17 -8 3 -17 -1 -20 -9 -3 -9 1 -14 12 -14 16 -1 16 -1 0 -14 -21 -16
-23 -32 -5 -43 16 -10 37 -49 37 -68 0 -17 5 -17 35 -6 23 10 54 -3 73 -31 17
-24 52 -24 52 0 0 11 14 25 35 35 43 21 56 21 49 3 -7 -17 54 -30 72 -15 18
15 36 1 29 -22 -4 -12 -1 -21 10 -25 24 -9 27 0 13 32 -18 41 -33 54 -55 48
-17 -5 -20 -2 -16 20 3 15 -1 31 -11 41 -9 9 -16 24 -15 33 0 11 2 12 6 5 2
-7 11 -13 18 -13 8 0 23 -13 35 -30 20 -29 60 -45 43 -17 -4 6 -9 21 -10 31
-3 15 2 13 19 -9 14 -18 23 -45 25 -79 2 -39 8 -55 25 -68 26 -20 17 -24 -13
-7 -16 8 -23 6 -39 -13 -20 -24 -27 -58 -11 -58 5 0 14 7 21 15 16 20 36 19
44 -2 4 -10 -2 -24 -15 -36 -14 -13 -18 -22 -11 -25 20 -6 14 -42 -6 -42 -11
0 -27 -9 -37 -20 -20 -22 -35 -18 -35 11 0 10 -7 19 -15 19 -9 0 -15 -9 -15
-25 0 -16 -6 -25 -15 -25 -19 0 -19 4 0 40 8 16 14 33 13 37 -1 4 1 18 6 31 5
15 1 31 -13 51 -25 35 -26 42 -6 35 9 -4 15 0 15 9 0 19 -31 31 -41 16 -8 -13
-39 -5 -39 10 0 5 8 11 18 13 11 3 8 6 -11 10 -21 4 -34 0 -48 -15 -21 -23
-24 -37 -9 -37 19 0 10 -38 -12 -53 -23 -16 -22 -16 12 -10 l35 5 -21 -22
c-24 -25 -41 -20 -54 16 -6 14 -18 24 -30 24 -17 0 -20 -6 -20 -50 0 -47 -2
-50 -25 -50 -14 0 -28 -7 -31 -15 -4 -8 -13 -15 -21 -15 -9 0 -13 6 -10 15 4
8 2 17 -2 20 -5 3 -7 15 -4 28 4 19 3 20 -9 6 -7 -9 -20 -14 -28 -11 -9 3 -5
-5 8 -18 22 -21 22 -23 6 -41 -12 -14 -13 -19 -4 -19 21 0 49 -30 43 -46 -3
-8 0 -14 6 -14 16 0 13 -22 -7 -45 -16 -19 -31 -24 -88 -26 -20 -1 -21 -4 -11
-34 12 -41 4 -65 -23 -65 -26 0 -25 -6 5 -42 17 -20 23 -37 20 -51 -8 -30 51
-90 65 -67 5 8 13 11 17 6 4 -5 2 -11 -4 -13 -20 -7 -15 -33 6 -33 11 0 21 9
25 23 5 19 45 47 68 47 4 0 8 -11 8 -24 0 -18 9 -27 38 -39 20 -8 47 -25 59
-36 12 -12 34 -26 48 -31 14 -5 25 -16 25 -23 0 -7 14 -26 30 -42 17 -16 30
-32 30 -37 0 -4 14 -21 30 -38 17 -17 30 -34 30 -39 0 -4 18 -25 41 -47 74
-71 94 -96 95 -118 0 -11 6 -20 12 -18 7 1 12 -6 12 -17 0 -10 6 -24 14 -31 8
-6 13 -17 10 -25 -3 -7 0 -16 6 -20 6 -4 8 -15 5 -26 -4 -12 -1 -21 8 -25 22
-8 36 -51 40 -121 2 -34 6 -66 10 -69 4 -4 7 -2 7 6 0 9 9 11 30 7 33 -7 49 7
24 21 -15 8 -15 10 2 16 20 7 37 -12 25 -29 -10 -13 -5 -65 7 -77 6 -6 12 7
16 31 5 30 10 39 21 35 9 -4 15 0 15 10 0 9 -5 16 -11 16 -6 0 -8 16 -4 44 7
41 5 45 -16 49 -20 3 -20 5 -4 6 18 1 20 7 17 65 -3 61 -3 63 19 62 18 -1 23
-7 23 -26 0 -14 -3 -31 -8 -38 -4 -6 0 -22 8 -34 l16 -22 0 22 c0 14 6 22 18
22 13 0 18 -10 20 -41 2 -37 1 -40 -18 -34 -16 5 -20 2 -20 -14 0 -11 -5 -23
-11 -26 -6 -4 -7 -19 -4 -36 4 -18 2 -36 -5 -44 -10 -11 -10 -15 -1 -15 7 0 9
-5 4 -12 -8 -13 -14 -98 -6 -98 2 0 8 10 13 23 6 12 14 29 19 37 5 8 12 23 15
33 7 23 22 22 29 -4 6 -23 27 -17 27 7 0 8 9 14 20 14 25 0 36 25 20 45 -16
19 -3 55 19 55 10 0 24 7 31 15 11 13 16 11 36 -17 13 -18 24 -46 24 -63 0
-19 10 -43 24 -60 13 -16 27 -43 31 -62 3 -18 10 -33 15 -33 19 0 40 -66 42
-134 2 -79 -5 -98 -30 -94 -21 3 -95 -69 -86 -83 4 -7 -3 -9 -17 -7 -13 1 -24
10 -25 18 -3 41 -6 45 -30 46 -22 2 -25 -1 -20 -20 4 -17 -1 -24 -25 -35 -16
-7 -40 -11 -52 -8 -12 3 -41 10 -64 16 -23 6 -78 13 -123 16 -54 3 -86 9 -96
20 -19 19 -10 23 68 29 32 2 62 7 67 11 6 3 28 1 49 -6 36 -10 42 -9 83 19 24
16 56 37 71 46 25 14 26 19 16 41 -8 17 -17 24 -28 20 -10 -3 -23 1 -30 10
-18 21 -29 19 -36 -9 -4 -19 -12 -25 -32 -24 -15 0 -38 -4 -52 -10 -27 -10
-90 -5 -90 8 0 5 14 14 30 22 25 11 30 18 26 40 -3 19 1 31 12 38 14 8 12 9
-9 10 -29 0 -42 20 -32 47 5 13 2 15 -15 11 -24 -7 -79 43 -68 61 4 6 2 11 -5
11 -7 0 -9 3 -6 6 3 4 1 16 -5 28 -7 11 -11 29 -9 39 1 10 -7 21 -23 27 -22 8
-25 14 -20 40 5 23 3 30 -10 30 -9 0 -16 8 -16 20 0 11 -8 32 -18 48 -20 33
-82 89 -82 74 0 -24 14 -42 32 -42 14 0 18 -5 14 -16 -3 -9 -6 -22 -6 -30 0
-8 -7 -14 -15 -14 -8 0 -15 7 -15 16 0 8 -5 12 -10 9 -6 -3 -10 -2 -10 3 0 5
-14 15 -31 22 -17 7 -37 20 -45 27 -8 8 -30 17 -50 19 -20 2 -44 9 -54 14 -10
6 -27 10 -38 10 -11 0 -25 7 -32 15 -7 8 -16 15 -21 15 -5 0 -6 -7 -3 -15 4
-9 0 -15 -10 -15 -10 0 -16 9 -16 25 0 18 -5 25 -19 25 -11 0 -23 5 -26 10 -3
6 -17 10 -29 10 -13 0 -29 7 -36 15 -7 8 -21 15 -31 15 -10 0 -20 4 -23 8 -3
5 -30 14 -61 21 -46 10 -59 10 -72 0 -13 -12 -19 -9 -42 19 -29 34 -58 37 -91
7 -25 -23 -32 -18 -14 10 9 13 14 30 11 37 -4 8 -6 6 -6 -4 -1 -11 -9 -18 -22
-18 -18 0 -20 4 -14 30 5 23 3 30 -9 30 -9 0 -25 9 -36 20 l-20 20 0 -23 c0
-17 -9 -27 -35 -37 -27 -11 -32 -16 -23 -27 20 -25 -2 -27 -27 -3 -17 16 -21
26 -14 31 18 11 0 31 -22 24 -11 -4 -19 -2 -19 4 0 6 -7 11 -15 11 -8 0 -15
-4 -15 -9 0 -5 -7 -12 -16 -15 -8 -3 -12 -2 -9 4 3 6 -3 10 -14 10 -24 0 -36
-16 -20 -26 8 -4 7 -9 -2 -15 -11 -8 -9 -14 10 -29 13 -11 21 -23 17 -27 -3
-4 -12 -1 -18 5 -9 9 -17 7 -34 -9 -12 -12 -27 -18 -33 -14 -17 10 -13 40 9
60 12 10 19 24 16 31 -3 7 4 16 15 19 10 4 19 14 19 22 0 13 -5 12 -24 -7 -16
-14 -31 -20 -43 -16 -17 6 -17 5 -1 -7 16 -13 15 -16 -12 -42 -17 -16 -30 -36
-30 -45 0 -30 -28 -59 -52 -52 -17 4 -20 2 -15 -12 5 -13 1 -19 -13 -23 -11
-3 -20 -12 -20 -19 0 -18 -67 -19 -72 -2 -3 7 -16 -1 -33 -20 -27 -30 -49 -35
-39 -8 9 22 -86 -7 -108 -34 -18 -22 -19 -22 -38 -5 -18 16 -19 16 -31 -3 -7
-11 -19 -18 -26 -15 -18 7 -17 -22 2 -37 19 -16 20 -40 1 -40 -8 0 -17 -7 -20
-16 -10 -25 -7 -34 9 -28 21 8 19 -12 -3 -28 -33 -24 -65 -76 -59 -97 3 -11
-1 -28 -9 -38 -7 -10 -14 -26 -14 -36 0 -9 -11 -48 -24 -86 -29 -82 -30 -133
-6 -177 11 -19 15 -34 9 -36 -6 -2 -7 -11 -3 -21 4 -10 13 -16 21 -13 19 8 29
-22 15 -45 -16 -24 -15 -29 3 -29 20 0 19 -19 0 -27 -14 -5 -14 -7 0 -23 13
-14 14 -22 4 -43 -10 -21 -9 -30 2 -43 18 -22 58 -132 51 -139 -3 -3 -7 -26
-8 -50 -2 -35 0 -45 12 -45 9 0 14 -6 11 -12 -2 -7 -10 -12 -16 -10 -17 3 -13
-28 4 -34 20 -8 19 -31 -1 -42 -10 -6 -15 -23 -15 -53 0 -24 -5 -60 -10 -80
-10 -38 2 -97 23 -110 8 -5 7 -14 -6 -33 -18 -29 -15 -41 22 -70 14 -11 22
-26 19 -37 -3 -10 1 -20 9 -23 8 -3 14 -17 14 -31 0 -22 4 -25 20 -20 17 5 20
2 20 -22 0 -18 3 -23 8 -15 6 8 19 10 41 6 29 -6 32 -10 26 -32 -3 -14 2 -46
12 -74 15 -42 15 -50 3 -58 -11 -7 -11 -11 -1 -24 16 -19 1 -22 -18 -4 -10 11
-14 10 -22 -5 -13 -23 -29 -22 -29 3 0 24 -28 27 -37 4 -3 -8 -1 -20 6 -27 23
-23 12 -37 -23 -32 -28 5 -34 2 -39 -15 -7 -27 4 -32 37 -14 l29 14 -17 -22
c-9 -13 -21 -33 -28 -46 -13 -26 -33 -30 -23 -4 12 31 10 37 -10 37 -11 0 -20
5 -20 12 0 6 -4 15 -10 20 -6 4 -7 4 -3 -1 4 -5 3 -15 -3 -22 -7 -9 -4 -14 11
-19 16 -5 20 -12 16 -28 -3 -12 -6 -25 -6 -28 0 -4 -9 -9 -20 -12 -13 -3 -18
-11 -14 -20 3 -9 12 -13 21 -10 11 4 14 3 9 -6 -5 -7 -1 -18 10 -26 15 -11 17
-16 7 -26 -7 -7 -13 -19 -13 -26 0 -17 37 -17 43 0 3 7 6 4 6 -6 1 -11 -12
-23 -34 -33 -46 -19 -53 -18 -57 9 -2 15 -9 21 -20 19 -12 -2 -18 4 -18 16 0
28 -9 32 -31 14 -19 -16 -19 -17 3 -34 23 -17 23 -18 2 -18 -23 0 -48 -23 -37
-33 12 -13 44 -7 49 8 10 25 24 17 24 -15 0 -24 -6 -33 -26 -40 -22 -9 -24
-13 -14 -25 10 -13 10 -19 -4 -34 -9 -10 -16 -22 -14 -27 1 -5 -5 -23 -15 -40
-16 -31 -16 -33 5 -60 12 -16 27 -33 33 -37 17 -14 -38 4 -64 20 -14 9 -48 16
-77 17 -55 1 -77 11 -55 25 11 7 10 14 -4 35 -23 35 -48 48 -107 53 -39 4 -48
2 -48 -11 0 -8 9 -20 20 -26 24 -13 26 -35 5 -44 -16 -6 -39 -55 -30 -64 3 -3
14 3 25 13 18 16 20 16 20 2 0 -23 -29 -35 -69 -30 -33 6 -33 5 -26 -26 8 -39
-7 -61 -37 -53 -19 5 -20 4 -8 -10 17 -18 65 -6 74 18 9 23 42 17 43 -7 2 -28
23 -50 30 -31 4 10 8 8 18 -5 11 -15 11 -21 -2 -35 -14 -16 -14 -18 -1 -18 8
0 20 11 26 25 16 34 41 31 55 -5 7 -18 17 -28 24 -25 20 7 73 -6 67 -17 -10
-15 64 -80 84 -74 27 9 37 7 37 -7 0 -6 6 -21 13 -32 11 -19 13 -19 22 -2 6 9
16 17 22 17 6 0 19 7 29 16 25 23 37 10 45 -46 6 -42 10 -50 28 -50 19 -1 20
-1 3 -11 -10 -6 -25 -8 -32 -5 -8 3 -17 2 -19 -3 -3 -4 -30 -8 -61 -9 -30 -1
-65 -6 -76 -13 -12 -6 -32 -8 -47 -3 -36 10 -121 11 -115 2 2 -5 -8 -4 -22 2
-20 8 -27 6 -31 -4 -7 -18 -34 -9 -34 10 0 18 -18 18 -36 -1 -9 -8 -23 -15
-32 -15 -15 0 -15 2 -2 11 12 8 11 9 -5 5 -11 -2 -74 -8 -140 -11 -127 -7
-180 -12 -232 -21 -18 -4 -46 -2 -62 4 -22 8 -31 7 -34 -1 -6 -16 -67 49 -67
70 0 9 3 14 6 10 3 -3 18 9 34 26 25 28 27 34 14 51 -8 11 -14 23 -14 27 0 10
38 3 54 -10 13 -11 16 -8 21 21 4 18 2 45 -3 59 -10 24 -9 25 19 21 22 -3 34
2 49 19 10 13 19 29 20 36 0 19 21 27 31 12 6 -10 9 -11 9 -1 0 6 7 12 15 12
12 0 14 4 5 19 -12 24 -6 28 48 37 29 4 42 3 42 -5 0 -6 4 -11 10 -11 5 0 7 8
3 18 -6 15 -4 15 15 -2 12 -11 25 -16 29 -12 10 10 11 86 0 79 -5 -3 -7 5 -5
17 2 13 -3 25 -11 28 -8 3 -11 0 -7 -6 4 -6 -3 -16 -14 -22 -11 -6 -18 -15
-15 -20 9 -15 -7 -40 -26 -40 -23 0 -24 18 -3 48 18 26 11 42 -18 42 -17 0
-19 4 -14 26 5 18 2 32 -9 44 -10 11 -12 20 -6 24 5 4 16 -2 23 -13 8 -11 22
-19 33 -18 12 1 21 -6 25 -23 4 -17 8 -21 13 -12 10 15 -24 63 -41 57 -9 -3
-10 3 -6 20 4 15 1 32 -6 40 -9 11 -9 15 -1 15 6 0 10 12 9 27 -1 16 4 39 11
52 7 12 14 40 16 61 1 21 6 43 10 50 11 17 -27 131 -43 125 -7 -2 -23 0 -37 5
-14 5 -25 6 -25 1 0 -13 -53 -20 -73 -10 -26 14 -45 -1 -22 -18 16 -11 16 -13
3 -13 -21 0 -74 28 -70 37 2 4 -1 9 -7 11 -21 7 -11 -17 15 -37 l26 -20 -46
-22 c-26 -12 -57 -19 -70 -17 -36 7 -56 -8 -33 -24 16 -12 16 -14 -3 -26 -18
-11 -22 -10 -30 10 -5 13 -9 17 -9 10 -1 -7 -6 -10 -12 -7 -6 4 -13 -2 -16
-13 -6 -24 -33 -38 -43 -22 -4 7 -13 3 -24 -9 -10 -11 -15 -25 -11 -31 8 -14
-44 -72 -57 -64 -14 9 -57 -24 -78 -59 -25 -41 -25 -57 0 -50 11 3 20 1 20 -3
0 -17 -15 -32 -35 -36 -12 -2 -19 -10 -17 -21 2 -9 -2 -17 -8 -17 -6 0 -10
-10 -8 -22 2 -15 -4 -26 -20 -34 -13 -6 -29 -17 -35 -23 -6 -6 -22 -11 -37
-11 -14 0 -20 -4 -15 -8 15 -11 37 -53 31 -59 -3 -3 -18 -5 -33 -5 -29 0 -53
-14 -53 -30 0 -5 9 -6 20 -3 11 4 20 2 20 -4 0 -6 -5 -11 -11 -11 -7 0 -9 -11
-5 -30 5 -29 4 -30 -21 -24 -22 6 -25 4 -19 -11 3 -10 2 -23 -2 -29 -5 -6 -12
-19 -15 -29 -5 -14 -2 -16 18 -11 21 5 25 2 25 -14 0 -12 -5 -32 -11 -46 -9
-20 -9 -29 1 -41 8 -10 10 -19 4 -23 -13 -10 -15 -84 -3 -99 6 -7 8 -17 4 -23
-4 -7 2 -14 13 -17 13 -3 18 -11 15 -19 -3 -9 1 -14 12 -14 23 0 85 -68 78
-86 -3 -8 0 -14 5 -14 12 0 37 -50 46 -93 4 -15 15 -35 26 -45 11 -9 20 -27
20 -40 0 -14 11 -50 24 -81 13 -31 39 -102 57 -159 18 -56 37 -102 41 -102 5
0 8 -9 8 -19 0 -11 7 -26 15 -35 10 -10 13 -24 9 -40 -4 -16 -1 -31 7 -40 8
-7 25 -28 39 -45 46 -58 64 -39 74 80 2 25 9 62 17 82 11 30 10 41 -1 61 -9
17 -11 46 -7 93 3 37 1 76 -5 86 -5 11 -6 23 0 30 5 7 8 31 8 55 -2 42 9 53
32 30 9 -9 8 -16 -5 -30 -10 -11 -12 -18 -4 -18 19 0 36 47 22 63 -9 11 -8 17
4 27 22 19 18 37 -11 44 -19 5 -24 11 -19 26 4 12 2 20 -4 20 -6 0 -11 5 -11
12 0 6 7 4 18 -6 18 -15 20 -15 36 3 10 11 15 25 11 30 -3 6 -1 11 5 11 6 0
13 -7 16 -15 4 -8 14 -15 24 -15 10 0 26 -8 36 -17 9 -10 28 -16 41 -15 12 2
23 -2 23 -8 0 -6 5 -8 10 -5 6 4 32 -6 58 -21 26 -14 76 -43 112 -62 36 -20
85 -48 109 -64 33 -21 48 -25 58 -17 17 15 43 4 43 -17 0 -14 4 -13 20 6 13
15 18 31 14 44 -12 44 -27 76 -35 76 -5 0 -9 4 -9 10 0 5 -15 31 -34 57 -18
27 -37 58 -40 71 -5 14 -15 22 -30 22 -13 0 -28 6 -33 13 -14 17 -23 96 -12
103 5 3 9 1 9 -5 0 -11 34 -24 68 -25 16 -1 22 4 22 20 0 20 5 22 62 21 34 0
55 -3 46 -6 -14 -5 -13 -10 9 -35 l25 -30 27 32 c30 37 55 41 71 12 6 -11 20
-20 31 -20 14 0 25 -13 38 -44 23 -53 51 -68 51 -28 1 15 11 40 24 56 28 34
58 31 112 -11 19 -14 41 -23 49 -19 9 3 18 -1 21 -9 4 -8 12 -15 20 -15 8 0
15 -11 16 -27 1 -16 2 -36 2 -46 1 -10 6 -21 12 -25 5 -4 16 -22 24 -40 20
-50 4 -60 -115 -67 -95 -7 -101 -6 -124 16 -16 15 -26 19 -29 11 -2 -7 -24
-12 -56 -12 -46 0 -56 4 -86 35 -39 40 -50 43 -50 16 0 -11 -4 -23 -10 -26
-22 -14 -30 -43 -15 -55 13 -11 14 -10 9 4 -9 24 34 70 53 55 15 -13 17 -45 3
-54 -6 -4 -6 -12 -1 -23 5 -9 12 -25 15 -34 3 -10 12 -18 20 -18 10 0 13 6 9
16 -4 12 0 15 17 12 13 -1 27 -13 31 -25 5 -13 5 -22 1 -20 -4 1 -9 -2 -12 -8
-8 -15 29 -18 46 -5 12 11 12 14 -1 24 -10 7 -12 16 -6 25 14 22 89 -3 100
-32 11 -29 7 -32 -21 -13 -23 15 -24 14 -35 -14 -13 -33 -4 -45 27 -35 16 5
20 2 20 -19 0 -16 6 -26 14 -26 19 0 29 17 16 25 -11 7 -4 25 10 25 16 0 23
-49 10 -65 -9 -11 -17 -12 -31 -5 -16 9 -20 6 -25 -17 -4 -16 -12 -35 -17 -43
-9 -12 -8 -13 2 -4 14 13 59 -4 81 -31 7 -8 15 -13 19 -11 3 2 6 -9 7 -24 1
-20 -3 -27 -12 -23 -8 3 -34 -5 -59 -17 -25 -12 -49 -20 -52 -16 -9 9 -44 -14
-37 -25 3 -6 -2 -20 -13 -31 -13 -15 -15 -22 -6 -25 7 -3 13 -18 13 -33 0 -33
18 -49 31 -29 5 8 9 9 9 3 0 -17 43 -25 53 -11 5 7 6 0 2 -18 -3 -16 -13 -36
-22 -43 -16 -11 -16 -12 0 -12 40 0 13 -38 -63 -89 -19 -12 -27 -20 -18 -17
10 3 20 1 23 -4 3 -4 17 -5 33 0 15 5 43 13 62 19 34 10 51 13 180 27 137 15
162 15 192 3 27 -11 32 -10 44 5 18 25 48 13 39 -14 -5 -16 -2 -20 14 -20 11
0 25 -9 31 -20 9 -16 8 -18 -5 -14 -17 7 -48 -14 -40 -27 3 -4 12 -6 21 -2 12
5 13 1 3 -20 -7 -15 -16 -24 -20 -21 -5 3 -9 -1 -9 -9 0 -7 -9 -23 -21 -36
-19 -20 -22 -21 -33 -5 -12 15 -15 15 -49 -7 -20 -13 -37 -27 -37 -31 0 -13
25 -9 46 7 26 20 33 19 44 -7 l9 -23 7 23 c8 26 27 24 32 -4 6 -32 22 -41 22
-12 0 22 16 38 38 38 4 0 7 -14 6 -31 -1 -26 -7 -34 -44 -50 -24 -11 -46 -16
-49 -13 -3 4 0 9 7 11 6 3 12 9 12 15 0 6 -8 7 -17 3 -10 -4 -25 -8 -33 -10
-8 -2 -17 -4 -20 -5 -3 -1 -9 -2 -15 -1 -5 1 7 -14 28 -33 37 -33 38 -35 20
-53 -17 -17 -19 -17 -36 0 -10 10 -22 15 -27 12 -6 -4 -10 1 -10 9 0 29 -17
16 -33 -24 -9 -23 -22 -40 -31 -40 -9 0 -16 -4 -16 -10 0 -19 -43 -10 -76 15
-40 30 -44 31 -44 5 0 -11 15 -33 32 -49 18 -16 30 -33 25 -37 -4 -4 -12 -3
-18 3 -6 6 -20 8 -31 5 -15 -3 -18 -10 -14 -28 6 -23 0 -28 -30 -25 -14 1 -38
-44 -30 -57 3 -5 -5 -13 -18 -16 -35 -9 -42 -37 -15 -59 12 -9 20 -19 18 -21
-2 -1 -21 -13 -41 -25 -21 -12 -38 -29 -38 -37 0 -8 -10 -14 -24 -14 -35 0
-41 -28 -11 -58 30 -30 26 -40 -7 -18 -18 12 -25 13 -26 4 0 -7 -4 -24 -8 -38
-7 -22 -6 -24 9 -11 9 7 18 10 18 5 1 -5 2 -15 3 -23 1 -10 19 -15 66 -16 118
-4 159 -17 160 -48 0 -5 -4 -6 -9 -2 -14 8 -82 -27 -78 -39 2 -6 16 -12 30
-14 15 -2 27 -7 27 -11 0 -5 9 -11 20 -14 11 -3 20 -13 20 -22 0 -13 6 -16 24
-11 15 4 28 0 36 -9 10 -13 9 -15 -9 -15 -12 0 -21 -6 -21 -15 0 -8 -4 -15
-10 -15 -5 0 -10 9 -10 19 0 31 -21 37 -42 11 -29 -36 -23 -58 17 -66 26 -4
35 -11 35 -25 0 -24 16 -31 77 -33 36 -1 47 -5 49 -19 2 -13 -2 -17 -13 -13
-8 3 -37 6 -64 6 -27 0 -48 3 -48 8 4 24 -4 32 -35 32 -19 0 -38 -5 -41 -10
-3 -6 -17 -10 -31 -10 -13 0 -24 -4 -24 -10 0 -14 35 -30 67 -30 61 0 88 -21
76 -57 -6 -17 -21 -16 -40 2 -8 9 -18 13 -21 10 -4 -3 -2 -9 4 -13 19 -12 25
-42 9 -42 -8 0 -15 -4 -15 -10 0 -5 9 -10 20 -10 11 0 20 7 20 15 0 18 4 19
30 3 16 -10 23 -10 36 4 14 13 15 20 6 31 -10 11 -9 17 1 26 11 8 17 5 27 -14
11 -20 10 -28 -2 -47 -17 -27 -13 -48 9 -48 10 0 14 -6 10 -19 -3 -13 1 -21
14 -24 20 -5 27 -27 9 -27 -15 0 -12 -27 5 -44 11 -11 13 -21 5 -41 -8 -22 -7
-27 13 -35 25 -10 17 -13 -34 -10 -19 1 -40 -5 -46 -12 -9 -10 -2 -13 34 -15
51 -2 105 -21 97 -34 -3 -5 2 -9 10 -9 18 0 21 -15 6 -25 -5 -3 -6 -13 -3 -21
5 -13 1 -15 -18 -9 -41 12 -44 11 -47 -22 -4 -36 16 -46 25 -14 4 15 12 19 34
16 24 -3 29 0 29 18 1 21 1 21 14 -3 12 -21 12 -26 -3 -37 -9 -7 -26 -13 -38
-13 -24 0 -32 -24 -13 -35 7 -4 1 -17 -15 -32 -24 -25 -24 -27 -9 -44 13 -15
20 -16 31 -8 7 6 13 17 13 24 0 7 6 15 14 18 11 5 13 0 6 -24 -12 -40 -5 -37
16 7 16 33 19 35 30 20 18 -25 67 -23 93 3 11 11 20 26 19 33 -2 6 5 13 14 16
13 2 17 -5 20 -30 l3 -33 23 38 c13 20 27 35 32 32 5 -3 12 9 16 27 7 32 7 32
17 11 12 -27 17 -28 64 -8 45 19 46 19 40 -5 -3 -13 0 -20 9 -20 8 0 14 4 14
9 0 5 19 30 43 55 41 45 43 46 75 34 17 -7 32 -18 32 -25 0 -21 36 -15 53 9
14 19 18 21 26 8 9 -12 11 -12 16 2 4 9 20 20 36 23 27 6 30 10 24 35 -6 29
-6 29 32 23 48 -7 52 -11 31 -27 -10 -7 -22 -24 -27 -38 -9 -23 -8 -25 11 -20
18 4 19 3 9 -17 -11 -20 -10 -21 42 -21 39 0 61 6 80 20 27 21 67 27 67 9 0
-6 7 -3 16 5 8 9 22 16 31 16 13 0 13 -2 2 -16 -11 -14 -10 -18 6 -30 10 -8
25 -14 33 -14 12 0 12 -3 2 -15 -7 -8 -21 -15 -31 -15 -11 0 -19 -7 -19 -15 0
-8 4 -15 9 -15 15 0 19 -49 5 -54 -23 -9 -17 -35 7 -29 18 5 19 2 13 -23 -4
-16 -14 -40 -22 -52 -12 -19 -13 -28 -4 -42 9 -15 8 -27 -6 -57 -9 -21 -17
-49 -17 -63 -1 -14 -5 -35 -9 -47 -6 -18 -4 -23 9 -23 9 0 14 4 11 9 -3 5 1
11 9 15 8 3 15 12 15 21 0 22 27 18 33 -5 3 -12 0 -20 -8 -20 -7 0 -16 -16
-19 -35 -7 -34 -26 -50 -26 -21 0 7 -9 16 -19 19 -16 4 -19 -1 -19 -30 0 -30
3 -34 20 -30 27 7 33 -16 14 -54 -20 -39 -20 -39 -1 -39 8 0 15 -9 15 -21 0
-13 6 -20 18 -18 9 1 30 -3 46 -10 23 -9 31 -9 40 3 18 22 142 87 151 78 4 -4
5 1 2 11 -4 11 -2 17 6 15 25 -5 97 49 97 74 0 10 50 31 58 24 2 -3 -5 -16
-16 -30 -10 -14 -22 -22 -26 -19 -3 3 -6 1 -6 -5 0 -5 6 -13 13 -16 6 -4 2 -4
-10 -2 -13 2 -26 -1 -30 -6 -3 -7 -1 -8 5 -4 7 4 12 2 12 -3 0 -6 -4 -11 -9
-11 -14 0 -71 -50 -71 -62 0 -7 7 -5 18 3 9 8 30 21 45 29 31 16 51 37 112
125 66 95 220 275 410 481 55 60 136 162 179 226 82 123 123 171 137 162 5 -3
35 -12 66 -20 32 -8 99 -35 148 -59 50 -25 98 -45 109 -45 10 0 31 -11 46 -24
16 -13 46 -27 67 -30 60 -11 212 -65 249 -89 56 -36 60 -62 35 -187 -13 -59
-20 -117 -17 -128 8 -23 182 -96 213 -90 10 2 23 -2 28 -10 23 -29 43 -2 55
76 7 42 14 88 15 102 1 14 4 32 8 40 3 8 11 42 17 75 7 33 21 92 32 130 11 39
24 97 29 130 9 58 16 86 45 170 22 64 19 73 -29 85 -79 21 -121 50 -180 123
-55 69 -57 74 -52 117 18 156 20 149 -45 174 -25 10 -52 23 -60 30 -8 7 -50
32 -93 55 -63 35 -81 41 -92 31 -8 -7 -15 -23 -15 -36 0 -12 -7 -30 -17 -39
-12 -12 -13 -19 -5 -24 9 -6 9 -16 1 -42 -18 -55 -19 -59 -16 -63 1 -3 -8 -15
-21 -29 -15 -16 -20 -30 -16 -42 5 -11 4 -16 -3 -12 -6 4 -8 -3 -5 -18 2 -14
0 -25 -5 -25 -5 0 -8 -14 -5 -30 3 -21 -2 -37 -13 -51 -10 -10 -18 -33 -18
-49 0 -17 -5 -30 -10 -30 -6 0 -8 -2 -5 -5 9 -9 -27 -128 -40 -133 -6 -2 -12
4 -12 13 0 12 -6 15 -20 10 -18 -6 -20 -2 -20 32 0 39 14 72 25 61 4 -3 1 -15
-6 -27 -16 -24 -4 -39 19 -25 19 13 23 35 7 46 -7 5 -6 14 3 28 16 27 15 38
-5 42 -16 3 -14 7 10 31 25 26 35 47 21 47 -4 0 -13 -8 -20 -17 -12 -16 -13
-16 -14 -2 0 15 31 51 34 39 1 -3 12 5 24 16 20 19 21 22 6 28 -10 4 -14 13
-11 26 3 11 1 23 -5 26 -5 3 -1 12 9 21 13 10 15 16 6 19 -17 7 -16 44 2 68 8
11 13 28 9 38 -3 10 0 18 6 18 6 0 24 13 40 30 16 16 36 30 45 30 11 0 14 7
11 25 -3 13 -7 29 -10 34 -14 23 -131 29 -179 10 -15 -7 -31 -9 -34 -5 -4 3
12 44 35 91 23 46 42 90 42 97 0 36 70 145 141 222 43 46 79 87 79 90 0 11
-36 6 -48 -6 -16 -16 -24 -6 -28 34 -10 97 -41 174 -94 234 -30 35 -30 64 0
119 14 25 24 31 57 33 36 3 48 -3 99 -45 77 -62 98 -87 171 -207 103 -166 117
-205 130 -349 3 -42 9 -60 21 -64 16 -6 84 -47 165 -101 63 -42 176 -168 203
-228 22 -49 24 -60 15 -109 -6 -30 -14 -63 -20 -73 -7 -14 -16 -54 -27 -122
-5 -34 -46 -164 -59 -190 -23 -45 -47 -121 -42 -134 3 -7 -1 -23 -9 -37 -7
-13 -13 -39 -14 -57 0 -18 -4 -40 -9 -50 -11 -20 -25 -73 -23 -85 1 -4 -3 -18
-10 -30 -6 -12 -11 -34 -10 -48 1 -14 -7 -37 -19 -50 -11 -13 -16 -25 -10 -27
6 -2 11 -20 11 -39 0 -27 -3 -34 -15 -29 -8 3 -15 1 -15 -3 0 -5 -3 -17 -6
-25 -5 -12 -2 -15 10 -10 19 7 21 -7 4 -25 -7 -6 -14 -29 -14 -49 -2 -57 -12
-105 -25 -112 -7 -5 -5 -9 6 -14 14 -5 15 -16 9 -78 -4 -40 -11 -84 -16 -98
-5 -14 -13 -54 -18 -90 -11 -83 -36 -201 -66 -315 -13 -50 -24 -94 -24 -98 0
-4 34 -7 76 -7 61 0 79 4 90 18 13 16 13 16 14 0 0 -17 21 -18 289 -18 267 0
290 1 294 18 4 16 5 16 6 0 1 -11 9 -18 23 -18 l21 0 -20 23 c-21 22 -21 22
-3 57 21 38 26 65 10 55 -10 -6 -50 15 -50 26 0 4 9 9 20 12 11 3 22 13 26 24
3 10 19 48 37 86 22 49 39 70 59 80 18 7 37 29 51 57 11 25 27 53 35 62 12 15
12 19 -1 33 -33 32 -87 -1 -133 -82 -31 -54 -51 -76 -76 -86 -10 -3 -18 -14
-19 -24 -1 -12 -3 -10 -8 6 -4 14 -13 27 -20 29 -9 3 -11 -2 -6 -17 3 -11 2
-21 -3 -21 -11 0 -32 43 -42 88 -8 32 -2 40 16 22 7 -7 10 12 10 57 -1 60 1
68 19 71 16 3 18 1 8 -9 -19 -19 -16 -29 7 -29 17 0 19 -3 12 -17 -12 -20 18
-56 43 -51 24 5 23 22 -3 33 -19 8 -21 15 -16 40 3 16 10 34 15 40 15 15 11
55 -6 55 -12 0 -13 4 -3 25 13 30 38 33 38 5 0 -23 20 -18 56 15 28 26 30 35
9 35 -8 0 -15 3 -15 6 0 3 7 12 15 20 8 9 15 24 15 34 0 23 18 36 32 22 8 -8
6 -21 -6 -45 -15 -32 -22 -77 -12 -77 3 0 17 5 31 10 20 8 25 15 20 30 -5 16
-3 19 12 13 10 -3 22 -8 27 -11 22 -12 64 -4 84 16 12 12 29 22 37 22 8 0 15
6 15 14 0 9 -10 12 -32 10 -34 -4 -68 21 -68 51 0 21 -32 19 -63 -5 -29 -23
-42 -26 -31 -7 4 6 4 9 0 5 -4 -3 -23 0 -41 8 -19 8 -50 14 -68 14 -19 0 -40
7 -47 15 -7 9 -20 13 -28 10 -9 -3 -19 -1 -22 5 -4 7 -40 13 -81 14 -41 1 -79
5 -85 9 -13 7 -48 -26 -37 -36 3 -4 1 -7 -5 -7 -7 0 -12 -7 -12 -16 0 -9 -11
-29 -25 -46 -14 -16 -25 -35 -25 -43 0 -7 -6 -15 -14 -18 -8 -3 -17 -19 -21
-36 -4 -17 -11 -33 -16 -36 -5 -4 -9 -15 -9 -27 0 -11 -8 -22 -18 -25 -14 -3
-19 -15 -20 -41 -2 -42 -22 -70 -22 -30 0 15 4 29 10 33 5 3 7 12 3 20 -3 8
-2 23 2 33 4 9 8 31 10 47 1 17 16 58 33 92 39 77 41 100 6 109 -22 6 -25 11
-19 33 3 14 10 49 15 76 4 28 17 91 29 140 61 262 46 239 141 230 247 -21 415
-86 544 -211 83 -79 167 -124 245 -130 31 -3 73 -6 94 -8 l37 -4 0 131 0 132
-143 75 c-78 41 -178 96 -222 124 -44 27 -102 60 -130 73 -27 13 -58 28 -67
33 -10 6 -24 10 -32 10 -7 0 -19 7 -27 16 -16 19 -89 57 -96 50 -11 -11 8 -37
34 -48 23 -9 25 -12 10 -15 -30 -7 -45 4 -52 39 -4 18 -12 39 -17 45 -11 13
-136 76 -153 77 -5 1 -11 13 -13 27 -3 25 1 27 40 33 24 3 57 6 73 6 50 0 196
-53 297 -106 14 -8 31 -14 37 -14 9 0 97 -48 201 -109 8 -5 33 -17 55 -27 22
-9 53 -27 68 -40 27 -23 110 -64 128 -64 5 0 9 1545 9 3574 l0 3574 -21 -5
c-11 -3 -23 -13 -27 -22 -3 -9 -11 -20 -19 -24 -7 -4 -13 -16 -13 -25 -1 -15
-2 -15 -11 2 -9 14 -8 20 2 27 11 7 10 9 -3 9 -25 0 -33 -4 -30 -13 4 -13 -26
-19 -40 -8 -7 6 -27 22 -44 35 -29 23 -30 28 -26 83 4 52 30 111 54 121 4 2 4
10 1 18 -3 8 0 14 6 14 6 0 11 6 11 13 0 9 13 13 43 11 58 -2 57 -2 57 -22 0
-10 14 -28 30 -40 l30 -23 0 756 0 755 -3010 0 c-1818 0 -3010 -4 -3010 -9 0
-5 6 -11 12 -14 10 -3 9 -8 -2 -22 -11 -14 -12 -19 -3 -22 7 -3 13 -16 13 -30
0 -22 -3 -24 -24 -19 -19 5 -25 1 -29 -16 -5 -19 -8 -20 -23 -8 -14 12 -18 12
-29 -3 -7 -9 -19 -17 -27 -17 -8 0 -19 -5 -25 -11 -13 -13 -42 8 -36 27 2 6
-8 23 -21 37 -14 15 -20 27 -13 27 7 0 6 4 -3 10 -11 7 -18 5 -27 -6 -12 -17
-53 -11 -53 7 0 6 -9 5 -21 -2 -15 -8 -24 -8 -32 0 -6 6 -21 11 -34 11 -13 0
-23 5 -23 11 0 8 -4 8 -14 0 -10 -9 -20 -9 -33 -2 -10 5 -33 16 -50 23 -18 7
-33 16 -33 20 0 10 -101 5 -117 -5 -7 -5 -17 -6 -22 -2 -5 3 -12 1 -16 -5 -3
-5 -14 -10 -25 -10 -10 0 -21 -7 -24 -16 -5 -14 -8 -14 -28 0 -20 14 -22 14
-33 -7 -8 -15 -19 -21 -38 -20 -24 2 -26 0 -12 -13 20 -21 9 -37 -21 -30 -17
5 -26 1 -34 -13 -5 -11 -23 -22 -40 -26 -16 -4 -34 -14 -39 -22 -5 -10 -16
-14 -30 -10 -11 3 -24 1 -27 -4 -3 -5 -38 -9 -79 -9 -42 0 -77 -5 -80 -11 -4
-6 -13 -8 -20 -5 -17 6 -39 -19 -30 -34 3 -5 1 -10 -4 -10 -6 0 -11 -11 -11
-25 0 -16 -6 -25 -16 -25 -13 0 -14 -3 -4 -14 6 -8 10 -30 9 -48 -2 -18 0 -38
4 -44 10 -17 12 -68 3 -82 -4 -7 -4 -18 1 -24 4 -7 8 -20 9 -28 1 -8 2 -23 3
-32 0 -9 10 -20 21 -23 11 -3 20 -13 20 -21 0 -8 6 -17 14 -20 9 -3 14 -19 13
-42 -1 -20 4 -37 11 -40 7 -2 12 -11 12 -19 0 -9 6 -13 15 -9 8 3 27 -6 41
-19 24 -22 24 -30 2 -26 -11 1 -10 -6 4 -29 10 -15 9 -22 -5 -38 -9 -10 -17
-27 -17 -38 -1 -10 -11 -32 -24 -47 -20 -24 -26 -27 -49 -18 -15 6 -33 8 -41
5 -8 -3 -23 -1 -34 5 -13 7 -26 6 -45 -4 -25 -13 -40 -4 -17 10 5 3 10 12 10
18 0 7 -5 4 -11 -5 -5 -10 -17 -18 -24 -18 -9 0 -15 -10 -15 -22 -1 -21 -2
-22 -14 -5 -7 9 -19 17 -27 17 -11 0 -11 2 1 10 9 6 10 10 3 10 -6 0 -14 -4
-17 -9 -3 -5 -22 -9 -41 -9 -19 0 -33 3 -30 7 2 4 -13 24 -35 44 -29 26 -45
34 -61 30 -15 -4 -20 -3 -15 5 7 12 -35 34 -54 29 -5 -1 -16 7 -25 18 -11 14
-18 16 -21 8 -8 -19 -54 -16 -54 3 0 8 -5 12 -11 9 -6 -4 -16 1 -23 10 -7 9
-21 15 -32 13 -10 -2 -27 5 -36 15 -12 13 -25 18 -39 14 -14 -4 -33 2 -51 14
-15 11 -28 18 -28 15 0 -2 -14 -1 -30 4 -27 8 -32 6 -42 -16 -9 -19 -19 -24
-48 -24 -46 0 -66 -17 -45 -41 14 -14 14 -20 1 -45 -8 -16 -17 -37 -20 -47 -3
-9 -18 -22 -33 -27 -16 -6 -37 -14 -48 -19 -34 -16 -75 -22 -75 -11 0 10 -181
4 -210 -7 -8 -4 -19 -5 -25 -3 -5 2 -32 7 -60 11 -55 9 -149 31 -180 43 -11 4
-33 13 -50 19 -16 6 -50 26 -74 44 -24 18 -52 33 -61 33 -10 0 -23 7 -30 15
-7 8 -18 15 -26 15 -7 0 -19 6 -26 13 -7 6 -35 22 -61 35 -26 12 -50 29 -53
36 -3 8 -11 13 -18 10 -7 -3 -19 2 -26 11 -7 8 -20 15 -29 15 -9 0 -34 12 -56
25 -22 14 -50 25 -61 25 -12 0 -24 7 -28 15 -3 8 -17 15 -31 15 -14 0 -47 16
-74 35 -26 19 -53 35 -59 35 -6 0 -37 14 -69 30 -31 17 -63 30 -70 30 -7 0
-13 4 -13 8 0 9 -60 47 -75 47 -6 0 -21 8 -35 18 -13 9 -30 17 -36 17 -6 0
-19 9 -29 20 -10 11 -23 19 -29 19 -17 -3 -68 23 -100 51 -56 48 -65 59 -75
97 -6 21 -17 47 -25 58 -9 11 -16 34 -16 50 -1 63 -9 75 -51 75 l-39 0 0 -655z
m4665 465 c-3 -5 -10 -10 -16 -10 -5 0 -9 5 -9 10 0 6 7 10 16 10 8 0 12 -4 9
-10z m35 -18 c0 -4 -5 -13 -12 -20 -9 -9 -8 -12 6 -12 9 0 24 7 32 15 23 23
31 18 32 -20 1 -19 -3 -35 -8 -35 -6 0 -10 -7 -10 -15 0 -8 -4 -15 -10 -15 -5
0 -10 7 -10 15 0 11 -6 9 -22 -7 l-23 -23 -3 30 c-3 31 -25 56 -45 51 -7 -2
-9 -1 -5 1 4 3 11 5 15 5 5 0 14 9 21 19 13 19 42 26 42 11z m-740 -75 c0 -5
8 -2 19 7 24 22 71 12 71 -15 0 -22 11 -24 28 -7 9 9 12 8 12 -5 0 -9 -4 -17
-10 -17 -5 0 -10 -5 -10 -10 0 -7 6 -7 19 0 14 7 22 7 26 0 4 -6 -7 -15 -24
-21 -35 -12 -31 -33 5 -26 13 2 24 0 24 -4 0 -5 9 -9 20 -9 11 0 19 -3 19 -7
-4 -25 3 -43 16 -43 10 0 15 -10 15 -30 0 -33 -34 -75 -87 -105 -18 -11 -33
-23 -33 -27 0 -10 -65 -40 -82 -37 -7 1 -21 -1 -31 -6 -18 -8 -47 9 -47 29 0
6 7 3 14 -6 16 -22 23 -23 23 -3 0 8 -2 13 -4 11 -8 -8 -44 35 -38 44 6 10 -7
14 -32 11 -7 -1 -9 7 -6 19 4 14 0 20 -11 20 -9 0 -16 5 -16 10 0 6 7 10 15
10 17 0 20 31 4 47 -15 15 -1 56 17 49 19 -7 18 13 -2 35 -10 11 -12 19 -5 24
6 3 11 1 11 -4 0 -6 5 -11 10 -11 6 0 10 9 10 20 0 11 7 20 15 20 8 0 15 4 15
10 0 5 -7 7 -15 4 -18 -7 -19 0 -3 25 11 19 48 18 48 -2z m5361 -49 c1 -7 1
-16 0 -20 0 -5 2 -8 7 -9 47 -5 70 -4 84 5 28 17 35 -4 8 -24 -19 -15 -22 -22
-13 -31 6 -6 20 -9 30 -5 13 6 14 9 4 15 -9 6 -7 10 8 14 13 3 19 11 16 19 -5
11 10 17 62 25 64 10 69 9 85 -11 10 -11 18 -15 18 -8 0 16 50 16 50 -1 0 -7
10 -19 21 -27 34 -24 59 -52 53 -62 -3 -4 2 -8 11 -8 8 0 18 -7 21 -15 4 -8
10 -15 16 -15 12 0 38 -26 38 -39 0 -5 9 -12 19 -16 11 -3 22 -14 25 -23 3 -9
17 -30 31 -46 28 -32 32 -55 13 -74 -10 -10 -10 -15 1 -21 11 -7 11 -13 1 -32
-10 -17 -10 -24 -1 -27 16 -5 13 -32 -4 -32 -8 0 -15 -5 -15 -11 0 -5 4 -8 8
-5 5 3 9 -8 10 -24 0 -17 -3 -30 -7 -30 -4 0 -16 -15 -25 -32 -26 -48 -63 -73
-82 -57 -12 10 -20 10 -35 1 -17 -11 -19 -9 -19 18 0 20 -5 30 -15 30 -8 0
-20 9 -27 20 -7 11 -18 20 -25 20 -7 0 -13 9 -13 20 0 19 -2 19 -23 5 -26 -17
-43 -9 -26 12 9 10 8 13 -5 13 -9 0 -16 -4 -16 -10 0 -5 -7 -7 -15 -4 -8 4
-15 12 -15 20 0 8 -5 14 -11 14 -6 0 -8 8 -4 19 4 13 0 20 -15 24 -13 3 -21
13 -20 24 1 10 2 21 1 26 0 4 -1 10 0 13 0 4 -5 10 -13 15 -10 6 -10 11 -1 20
15 15 -19 55 -38 43 -9 -5 -10 -2 -6 10 4 10 4 28 1 42 -5 19 -9 22 -24 14
-15 -8 -17 -6 -13 11 4 12 11 18 20 15 9 -4 13 -1 10 6 -2 7 0 21 5 31 11 20
-15 35 -35 20 -6 -6 -25 -9 -42 -9 -16 1 -32 -5 -35 -12 -4 -9 -12 -7 -29 9
-21 19 -21 23 -7 31 9 5 16 18 16 29 0 16 5 18 26 13 19 -5 25 -4 20 5 -4 6
-12 9 -17 6 -5 -4 -9 -1 -9 4 0 6 -7 11 -15 11 -8 0 -15 -4 -15 -10 0 -5 -4
-10 -9 -10 -5 0 -9 10 -8 23 0 12 -3 30 -7 40 -5 10 -4 17 3 17 6 0 12 -6 12
-12z m-7121 -418 c0 -5 -4 -10 -10 -10 -5 0 -10 5 -10 10 0 6 5 10 10 10 6 0
10 -4 10 -10z m1426 -5 c-3 -8 -1 -15 5 -15 5 0 12 7 15 15 4 8 16 15 28 15
16 0 24 -9 31 -32 10 -31 9 -33 -32 -54 -53 -26 -99 -22 -98 9 2 33 26 77 43
77 8 0 12 -6 8 -15z m5774 -730 c0 -8 4 -15 9 -15 13 0 22 -28 11 -35 -6 -4
-14 5 -20 19 -5 14 -14 26 -20 26 -6 0 -8 5 -5 10 9 15 25 12 25 -5z m20 -80
c-7 -8 -16 -12 -21 -9 -13 8 -1 24 18 24 13 0 13 -3 3 -15z m-5541 -141 c-17
-21 -31 -17 -19 6 6 11 15 18 21 14 6 -4 6 -11 -2 -20z m-540 -160 c3 -16 1
-17 -13 -5 -19 16 -21 34 -3 29 6 -3 14 -13 16 -24z m3084 -101 c60 -55 66
-68 22 -43 -44 25 -65 44 -65 60 0 6 -7 13 -15 16 -8 4 -15 10 -15 16 0 13 21
-1 73 -49z m197 -13 c0 -5 -2 -10 -4 -10 -3 0 -8 5 -11 10 -3 6 -1 10 4 10 6
0 11 -4 11 -10z m-42 -146 c43 -37 60 -41 81 -21 11 10 11 8 2 -10 -16 -31
-49 -29 -82 3 -31 30 -48 26 -42 -9 3 -14 -2 -29 -11 -37 -20 -16 -33 -6 -17
14 8 10 9 21 3 33 -5 10 -8 23 -5 29 2 6 -3 17 -12 24 -8 7 -15 16 -15 21 0
15 58 -12 98 -47z m312 25 c0 -6 -4 -7 -10 -4 -5 3 -10 11 -10 16 0 6 5 7 10
4 6 -3 10 -11 10 -16z m-100 -53 c0 -11 -19 -15 -25 -6 -3 5 1 10 9 10 9 0 16
-2 16 -4z m-205 -56 c3 -5 12 -7 20 -3 20 7 65 -5 65 -17 0 -8 -51 -40 -64
-40 -2 0 -2 8 1 19 3 12 -2 20 -15 23 -15 4 -22 0 -26 -15 -3 -12 -8 -18 -11
-15 -8 8 5 58 15 58 5 0 11 -4 15 -10z m-100 -10 c7 -12 -12 -12 -40 0 -18 8
-17 9 7 9 15 1 30 -3 33 -9z m235 -21 c0 -5 -7 -9 -15 -9 -8 0 -15 7 -15 15 0
9 6 12 15 9 8 -4 15 -10 15 -15z m231 -118 c27 -45 24 -46 -21 -2 -22 21 -40
44 -40 50 0 19 39 -13 61 -48z m-461 -202 c0 -5 -4 -9 -10 -9 -5 0 -10 7 -10
16 0 8 5 12 10 9 6 -3 10 -10 10 -16z m398 -24 c17 -36 15 -41 -8 -20 -20 18
-27 45 -12 45 5 0 14 -11 20 -25z m-208 -6 c0 -5 -4 -9 -10 -9 -5 0 -10 7 -10
16 0 8 5 12 10 9 6 -3 10 -10 10 -16z m150 -13 c0 -2 -7 -7 -16 -10 -8 -3 -12
-2 -9 4 6 10 25 14 25 6z m-100 -22 c0 -17 -22 -14 -28 4 -2 7 3 12 12 12 9 0
16 -7 16 -16z m23 -36 c8 -30 3 -32 -32 -17 -37 16 -39 26 -8 32 12 2 25 5 28
6 4 0 9 -9 12 -21z m77 -3 c0 -3 -9 -5 -20 -5 -11 0 -20 7 -20 15 0 13 4 14
20 5 11 -6 20 -13 20 -15z m-16 -40 c3 -8 2 -15 -3 -15 -5 0 -14 7 -21 15 -10
12 -10 15 3 15 8 0 17 -7 21 -15z m50 -20 c-4 -8 -8 -15 -10 -15 -2 0 -4 7 -4
15 0 8 4 15 10 15 5 0 7 -7 4 -15z m-6166 -28 c4 -21 -21 -22 -37 -3 -9 11 -9
15 1 19 20 8 33 2 36 -16z m5700 -24 c-2 -10 -10 -18 -18 -18 -8 0 -16 8 -18
18 -2 12 3 17 18 17 15 0 20 -5 18 -17z m-5671 -27 c-12 -13 -16 -13 -20 -2
-7 18 14 39 26 27 6 -6 4 -16 -6 -25z m6053 4 c0 -5 -4 -10 -10 -10 -5 0 -10
5 -10 10 0 6 5 10 10 10 6 0 10 -4 10 -10z m-6097 -6 c5 -5 -27 -44 -37 -44
-2 0 -7 8 -10 17 -9 23 29 45 47 27z m5847 -54 c0 -5 -4 -10 -10 -10 -5 0 -10
5 -10 10 0 6 5 10 10 10 6 0 10 -4 10 -10z m225 -90 c3 -5 -1 -10 -10 -10 -9
0 -13 5 -10 10 3 6 8 10 10 10 2 0 7 -4 10 -10z m-95 -40 c0 -5 -7 -10 -15
-10 -8 0 -15 5 -15 10 0 6 7 10 15 10 8 0 15 -4 15 -10z m30 -20 c0 -5 -2 -10
-4 -10 -3 0 -8 5 -11 10 -3 6 -1 10 4 10 6 0 11 -4 11 -10z m81 -76 c12 -14
11 -16 -5 -13 -11 2 -21 10 -24 17 -5 17 13 15 29 -4z m-4005 -91 c-10 -10
-19 5 -10 18 6 11 8 11 12 0 2 -7 1 -15 -2 -18z m-9 -65 c-3 -8 -6 -5 -6 6 -1
11 2 17 5 13 3 -3 4 -12 1 -19z m4423 -167 c6 -11 6 -22 1 -25 -5 -3 -11 5
-13 19 -6 30 -2 32 12 6z m-33 -27 c-3 -3 -12 -4 -19 -1 -8 3 -5 6 6 6 11 1
17 -2 13 -5z m-1767 -24 c0 -5 -5 -10 -11 -10 -5 0 -7 5 -4 10 3 6 8 10 11 10
2 0 4 -4 4 -10z m2905 -57 c32 -18 78 -70 73 -84 -2 -7 -22 -13 -46 -14 -28
-1 -49 -8 -65 -23 -31 -29 -37 -28 -37 9 l0 32 -25 -27 c-13 -14 -31 -26 -39
-26 -9 0 -21 -9 -28 -20 -7 -11 -18 -20 -25 -20 -6 0 -19 -10 -27 -21 -11 -16
-21 -20 -38 -16 -17 5 -27 1 -36 -13 -18 -30 -34 -25 -22 6 6 14 10 45 10 69
0 39 5 47 54 92 81 74 178 96 251 56z m-5474 -44 c-9 -22 -10 -22 -10 -3 -1
11 2 24 6 27 12 12 14 0 4 -24z m4349 -31 c0 -4 -4 -8 -10 -8 -5 0 -10 -9 -10
-20 0 -11 -5 -20 -11 -20 -7 0 -8 7 -4 18 10 22 10 42 0 67 -7 17 -5 16 13 -4
12 -13 22 -28 22 -33z m195 -7 c-3 -6 -14 -11 -23 -11 -13 0 -13 2 4 14 21 15
30 14 19 -3z m-20 -62 c10 -31 -15 -43 -39 -20 -10 11 -15 24 -12 30 12 19 44
12 51 -10z m1125 -145 c10 -23 30 -61 45 -84 26 -41 42 -90 29 -90 -11 0 -34
29 -34 44 0 8 -9 20 -20 26 -12 6 -20 21 -20 35 0 14 -4 25 -8 25 -4 0 -9 10
-9 22 -1 13 -8 27 -16 33 -8 5 -16 23 -19 38 -5 27 -5 27 15 10 11 -10 28 -37
37 -59z m-497 16 c-3 -11 -9 -20 -14 -20 -14 0 -11 28 4 33 6 3 13 6 14 6 0 1
-1 -8 -4 -19z m612 -262 c5 -18 3 -28 -4 -28 -6 0 -11 9 -11 19 0 11 -3 28 -6
38 -5 12 -4 15 4 8 6 -5 14 -22 17 -37z m-39 -15 c22 -29 18 -46 -6 -31 -11 7
-20 21 -20 30 0 23 9 23 26 1z m53 -70 c1 -7 -3 -13 -9 -13 -5 0 -10 15 -9 33
0 27 2 29 9 12 5 -11 9 -26 9 -32z m-929 12 c5 3 15 3 21 0 6 -4 -3 -17 -22
-31 -35 -26 -58 -32 -41 -11 6 7 8 24 5 38 -6 21 -5 22 10 11 9 -8 21 -11 27
-7z m570 -104 c0 -12 -29 -35 -36 -28 -11 10 5 37 21 37 8 0 15 -4 15 -9z
m335 -21 c-3 -5 -3 -15 1 -21 4 -8 9 -7 15 2 6 10 9 3 10 -21 1 -19 1 -39 0
-44 -1 -4 3 -13 8 -20 11 -13 9 -49 -4 -79 -4 -9 -5 -27 -2 -39 4 -12 2 -27
-3 -34 -6 -6 -11 -31 -12 -55 -1 -51 -16 -79 -39 -79 -19 0 -19 -25 -1 -57 14
-25 6 -29 -19 -10 -14 11 -23 48 -44 179 -3 20 -12 49 -20 64 -10 20 -11 31
-2 45 8 13 8 21 -2 33 -13 15 -27 116 -16 116 2 0 14 -18 25 -41 12 -22 26
-39 33 -36 7 2 19 27 27 55 11 38 20 52 33 52 10 0 15 -4 12 -10z m-1450 -30
c13 10 19 10 33 -3 9 -8 29 -18 44 -22 15 -4 32 -13 39 -21 6 -8 16 -14 21
-14 22 0 118 -73 118 -90 0 -10 4 -20 9 -22 5 -1 13 -15 16 -30 10 -39 -10
-36 -51 7 -18 19 -42 35 -53 35 -12 0 -21 6 -21 14 0 17 -14 28 -44 33 -12 2
-57 10 -101 18 -44 7 -105 14 -135 15 -77 0 -131 11 -127 24 2 6 39 16 83 23
56 8 83 17 94 31 14 17 17 18 38 4 18 -12 25 -12 37 -2z m1163 8 c-3 -7 -11
-13 -18 -13 -7 0 -15 6 -17 13 -3 7 4 12 17 12 13 0 20 -5 18 -12z m-1238
-135 c79 -22 136 -49 208 -100 63 -45 79 -78 38 -78 -10 0 -24 -8 -30 -18 -9
-14 -7 -20 7 -28 9 -6 17 -17 17 -25 0 -26 -50 16 -57 47 -6 32 -23 29 -24 -4
0 -12 -3 -17 -5 -10 -3 7 -11 10 -19 7 -8 -3 -16 4 -20 16 -6 18 -12 20 -33
15 -15 -4 -28 -11 -30 -16 -2 -5 -12 -9 -22 -9 -31 0 -31 -28 0 -54 17 -14 30
-29 30 -35 0 -17 22 -13 44 8 22 20 84 41 73 25 -3 -5 -23 -18 -44 -29 -21
-11 -43 -26 -49 -34 -8 -10 -13 -11 -18 -3 -4 7 -12 12 -17 12 -5 0 -2 -11 8
-24 16 -21 19 -22 30 -7 10 14 12 14 19 -3 5 -12 3 -21 -4 -24 -17 -5 -15 -37
4 -53 13 -10 17 -10 24 0 8 14 30 7 30 -10 0 -6 -5 -7 -11 -3 -6 3 -15 0 -20
-7 -6 -11 -16 -6 -42 21 -19 19 -32 40 -30 47 3 7 0 13 -6 13 -11 0 -15 -20
-11 -49 1 -10 -4 -11 -17 -6 -10 4 -39 10 -65 12 -38 3 -48 1 -48 -12 0 -17
-25 -21 -35 -5 -3 6 -13 10 -21 10 -11 0 -14 -6 -9 -22 l7 -23 -17 23 c-12 16
-26 22 -55 22 -35 0 -38 -2 -37 -27 0 -49 -3 -64 -12 -59 -5 4 -7 -3 -4 -15 3
-11 12 -23 20 -26 11 -4 6 -14 -19 -38 -27 -27 -36 -31 -52 -23 -15 8 -28 6
-53 -7 -31 -17 -34 -17 -51 -2 -10 10 -28 17 -40 17 -11 0 -24 5 -27 10 -7 11
-54 13 -79 4 -9 -3 -16 -15 -16 -25 0 -18 -10 -23 -37 -20 -7 1 -13 -5 -13
-14 0 -8 -9 -15 -20 -15 -23 0 -26 10 -8 28 19 19 -11 36 -32 18 -22 -20 -71
-17 -95 5 -11 11 -29 25 -40 33 -16 12 -17 17 -8 27 9 9 9 18 2 31 -6 11 -8
26 -5 33 3 8 1 17 -5 20 -5 4 2 16 16 27 14 11 23 23 20 28 -6 9 18 36 37 42
8 3 11 20 10 47 -2 28 1 40 8 36 5 -3 10 2 10 13 0 26 27 36 39 14 5 -9 13
-13 18 -9 4 5 -1 15 -11 23 -19 13 -19 14 -1 34 10 11 28 20 41 20 13 0 36 11
51 25 23 20 25 24 10 25 -11 0 -17 5 -14 13 2 6 11 10 18 8 8 -2 23 -3 34 -1
11 1 35 3 53 4 17 0 32 4 32 8 0 4 20 13 45 19 25 6 45 15 45 19 0 14 -61 23
-73 11 -15 -15 -27 -14 -27 4 0 14 25 24 65 26 81 2 105 5 105 12 0 5 8 7 18
6 9 -1 24 1 32 4 64 26 177 26 270 0z m885 -56 c63 -88 75 -112 75 -154 0 -24
-4 -43 -10 -43 -5 0 -10 9 -10 20 0 11 -3 20 -8 20 -4 0 -13 -9 -20 -20 -7
-11 -17 -20 -23 -20 -5 0 -7 5 -3 12 4 7 3 8 -4 4 -7 -4 -12 -13 -12 -20 0 -6
-5 -17 -12 -24 -9 -9 -14 -6 -22 11 -6 12 -21 26 -34 32 -28 12 -28 20 0 39
18 13 19 18 8 31 -10 12 -10 15 4 15 12 0 16 9 15 38 -2 41 10 102 20 102 3
-1 20 -20 36 -43z m-1425 2 c-14 -4 -32 -7 -39 -8 -21 -1 -1 16 24 21 30 7 43
-5 15 -13z m885 -179 c3 -5 2 -10 -4 -10 -5 0 -13 5 -16 10 -3 6 -2 10 4 10 5
0 13 -4 16 -10z m-68 -71 c-3 -11 -1 -32 4 -47 4 -15 11 -39 14 -54 9 -46 26
-33 19 15 l-7 42 46 -48 c26 -27 47 -51 47 -55 1 -4 15 -16 33 -27 21 -13 33
-30 35 -47 2 -15 10 -32 18 -38 20 -17 17 -40 -7 -61 -12 -10 -18 -23 -13 -30
5 -8 12 -5 24 10 14 20 18 21 29 7 18 -22 6 -49 -18 -41 -11 3 -22 1 -26 -5
-3 -5 -13 -10 -22 -10 -12 0 -15 8 -10 39 6 49 2 54 -34 35 -16 -8 -29 -10
-29 -5 0 5 6 11 12 13 9 3 7 13 -7 34 -11 16 -18 35 -17 42 2 7 -3 12 -10 11
-26 -3 -35 1 -45 24 -17 38 -81 108 -86 94 -2 -6 -7 -9 -11 -5 -4 3 -2 15 5
27 7 11 10 24 6 28 -5 4 -12 1 -17 -7 -6 -8 -10 -11 -10 -7 0 5 14 28 31 53
30 43 56 51 46 13z m-87 14 c0 -5 -5 -15 -10 -23 -8 -12 -10 -11 -10 8 0 12 5
22 10 22 6 0 10 -3 10 -7z m-984 -50 c-10 -10 -19 5 -10 18 6 11 8 11 12 0 2
-7 1 -15 -2 -18z m2072 -18 c-9 -19 -9 -28 0 -37 21 -21 13 -45 -21 -71 -35
-26 -62 -92 -51 -121 5 -12 2 -15 -9 -10 -12 4 -14 1 -10 -14 6 -23 -15 -66
-53 -111 -27 -33 -54 -41 -54 -16 0 8 -7 15 -15 15 -9 0 -18 7 -21 15 -4 8
-17 15 -29 15 -23 0 -55 23 -55 40 0 4 15 17 34 28 19 11 50 45 70 76 28 44
41 56 61 56 14 0 33 9 43 21 9 11 32 36 50 55 18 18 31 38 28 43 -10 16 5 41
25 41 16 0 17 -3 7 -25z m-458 6 c0 -6 -4 -13 -10 -16 -5 -3 -10 1 -10 9 0 9
5 16 10 16 6 0 10 -4 10 -9z m-1684 -78 c-10 -10 -19 5 -10 18 6 11 8 11 12 0
2 -7 1 -15 -2 -18z m1099 -22 c-12 -12 -65 -25 -65 -17 0 8 39 24 60 25 9 1
10 -2 5 -8z m-405 -16 c11 -13 10 -14 -4 -9 -9 3 -16 10 -16 15 0 13 6 11 20
-6z m1596 -62 c-4 -21 -9 -52 -11 -68 -2 -17 -17 -67 -34 -110 -34 -88 -37
-100 -20 -89 7 4 3 -7 -7 -25 -16 -27 -20 -29 -30 -16 -6 8 -16 15 -23 15 -14
0 -57 -42 -53 -52 3 -10 -2 -10 -22 -2 -22 8 -20 31 4 61 24 31 25 45 5 83 -9
17 -11 30 -5 30 19 0 10 29 -12 41 l-22 12 22 15 c12 8 22 21 22 28 0 19 15
18 35 -2 15 -15 18 -14 46 12 17 16 39 28 50 26 17 -3 24 8 20 31 -2 14 19 47
31 47 7 0 8 -13 4 -37z m-1336 -13 c0 -5 -4 -10 -10 -10 -5 0 -10 5 -10 10 0
6 5 10 10 10 6 0 10 -4 10 -10z m120 0 c0 -5 -7 -10 -16 -10 -8 0 -12 5 -9 10
3 6 10 10 16 10 5 0 9 -4 9 -10z m-810 -115 c0 -8 -9 -15 -20 -15 -20 0 -26
11 -13 23 12 13 33 7 33 -8z m1110 -80 c7 -9 10 -18 7 -22 -8 -7 -37 15 -37
28 0 14 16 11 30 -6z m-2100 -30 c0 -8 -4 -15 -9 -15 -13 0 -22 16 -14 24 11
11 23 6 23 -9z m106 -170 c-3 -8 -10 -15 -15 -15 -6 0 -8 7 -5 15 7 18 -9 19
-35 3 -16 -10 -24 -7 -49 16 -30 29 -34 66 -6 66 8 0 14 7 14 15 0 9 21 -5 51
-35 32 -31 49 -56 45 -65z m152 62 c2 -8 -5 -20 -16 -26 -16 -9 -18 -7 -14 20
5 31 25 35 30 6z m46 -23 c9 -3 16 -10 16 -16 0 -5 -4 -6 -10 -3 -5 3 -10 -3
-10 -15 0 -13 -5 -20 -12 -18 -14 5 -19 58 -7 58 4 0 14 -3 23 -6z m2239 -9
c8 -18 -11 -31 -25 -17 -11 11 -3 32 12 32 4 0 10 -7 13 -15z m50 0 c7 -16 -8
-29 -23 -20 -15 9 -12 35 4 35 8 0 16 -7 19 -15z m-2328 -65 c8 0 15 -5 15
-11 0 -6 8 -9 18 -7 14 4 22 -3 32 -30 10 -28 10 -37 1 -40 -7 -2 -21 -13 -31
-25 -16 -17 -22 -18 -35 -7 -12 10 -13 16 -3 27 9 11 1 24 -43 69 -29 29 -48
54 -42 54 6 0 13 -6 16 -12 3 -10 10 -8 23 5 18 16 19 16 26 -3 4 -11 14 -20
23 -20z m-220 0 c3 -5 1 -10 -4 -10 -6 0 -11 5 -11 10 0 6 2 10 4 10 3 0 8 -4
11 -10z m-109 -77 c-3 -3 -13 -2 -23 2 -17 7 -17 8 2 15 19 7 34 -5 21 -17z
m434 23 c0 -3 -4 -8 -10 -11 -5 -3 -10 -1 -10 4 0 6 5 11 10 11 6 0 10 -2 10
-4z m-1952 -535 c3 -8 -1 -12 -9 -9 -7 2 -15 10 -17 17 -3 8 1 12 9 9 7 -2 15
-10 17 -17z m1027 -90 c3 -10 19 -30 35 -45 17 -14 30 -33 30 -42 0 -13 -4
-13 -30 3 -16 9 -30 25 -30 34 0 9 -9 24 -20 34 -24 21 -26 35 -6 35 8 0 17
-8 21 -19z m-61 -7 c5 -14 4 -15 -9 -4 -17 14 -19 20 -6 20 5 0 12 -7 15 -16z
m1136 -304 c0 -5 -4 -10 -10 -10 -5 0 -10 5 -10 10 0 6 5 10 10 10 6 0 10 -4
10 -10z m-390 -119 c0 -11 -4 -23 -10 -26 -5 -3 -10 -11 -10 -18 0 -8 3 -8 12
1 18 18 28 15 28 -9 0 -17 -5 -20 -25 -17 -16 4 -25 1 -25 -8 0 -9 10 -12 28
-9 26 3 28 1 24 -21 -3 -16 2 -29 13 -37 15 -12 13 -16 -21 -50 -42 -41 -29
-51 27 -21 17 8 38 13 47 11 35 -7 -137 -65 -199 -67 -20 0 -35 35 -48 109
-11 67 -3 89 43 125 35 27 50 22 21 -8 -19 -18 -19 -40 -2 -55 11 -8 18 -6 33
11 10 12 13 18 7 14 -25 -14 -35 5 -15 28 11 11 25 31 31 44 14 27 41 29 41 3z
m-780 -265 c0 -3 -4 -8 -10 -11 -5 -3 -10 -1 -10 4 0 6 5 11 10 11 6 0 10 -2
10 -4z m-40 -86 c8 -5 11 -10 5 -10 -5 0 -17 5 -25 10 -8 5 -10 10 -5 10 6 0
17 -5 25 -10z m486 -37 c-3 -3 -13 -2 -23 2 -17 7 -17 8 2 15 19 7 34 -5 21
-17z m94 11 c0 -3 -7 -12 -15 -20 -19 -19 -41 -8 -24 12 11 14 39 20 39 8z
m-197 -434 c3 -11 1 -20 -4 -20 -5 0 -9 9 -9 20 0 11 2 20 4 20 2 0 6 -9 9
-20z m87 -122 c0 -13 -23 -5 -28 10 -2 7 2 10 12 6 9 -3 16 -11 16 -16z m535
-98 c3 -5 2 -10 -4 -10 -5 0 -13 5 -16 10 -3 6 -2 10 4 10 5 0 13 -4 16 -10z
m55 -61 c0 -14 -16 -11 -29 5 -10 12 -8 13 8 9 12 -3 21 -9 21 -14z m-86 -48
c3 -5 -5 -12 -19 -15 -14 -4 -25 -13 -25 -21 0 -8 -4 -15 -10 -15 -12 0 -12 2
0 34 9 26 43 36 54 17z m4 -143 c-5 -15 -35 -34 -43 -27 -3 4 -3 14 1 23 7 18
48 23 42 4z m2242 2 c0 -5 -2 -10 -4 -10 -3 0 -8 5 -11 10 -3 6 -1 10 4 10 6
0 11 -4 11 -10z m50 -65 c0 -8 15 -28 33 -46 24 -24 32 -42 34 -72 1 -24 9
-47 22 -61 26 -28 26 -36 1 -36 -11 0 -20 -4 -20 -10 0 -5 -4 -10 -10 -10 -5
0 -10 8 -10 18 0 10 -9 28 -21 40 -11 12 -17 27 -14 33 4 5 2 15 -3 22 -5 7
-10 27 -10 45 0 18 -8 46 -16 64 -20 39 -20 54 -1 38 8 -7 15 -18 15 -25z
m-2459 -108 c-13 -13 -26 -3 -16 12 3 6 11 8 17 5 6 -4 6 -10 -1 -17z m-215
-105 c-23 -23 -33 -6 -10 19 12 13 20 16 22 9 3 -7 -3 -19 -12 -28z m-26 -62
c0 -23 -22 -26 -39 -6 -9 11 -9 15 1 19 26 11 38 7 38 -13z m46 -65 c9 -23
-14 -44 -62 -56 -26 -7 -46 -18 -49 -29 -5 -15 -62 -34 -73 -25 -12 11 14 46
36 52 15 3 38 13 51 22 14 9 32 15 42 13 10 -2 19 5 22 18 6 24 25 27 33 5z
m-136 -135 c0 -5 -2 -10 -4 -10 -3 0 -8 5 -11 10 -3 6 -1 10 4 10 6 0 11 -4
11 -10z m-3118 -26 c21 -11 33 -12 47 -4 23 12 34 0 24 -25 -5 -15 -1 -17 25
-13 18 2 32 3 32 2 0 -1 3 -9 6 -18 4 -11 1 -16 -11 -16 -12 0 -15 -5 -10 -21
5 -16 -3 -30 -36 -61 -37 -35 -41 -42 -31 -59 15 -23 16 -56 2 -64 -5 -3 -10
-1 -10 6 0 8 -10 9 -31 5 -25 -5 -32 -2 -36 14 -7 27 -21 25 -35 -5 -11 -25
-28 -34 -28 -15 0 6 -7 10 -15 10 -8 0 -15 -4 -15 -10 0 -5 -4 -10 -8 -10 -5
0 -9 6 -9 13 0 18 -44 77 -57 77 -14 0 -36 48 -36 78 0 17 4 23 15 18 9 -3 15
0 15 10 0 8 6 17 14 20 8 3 12 12 9 20 -7 20 15 44 42 44 13 0 26 7 29 16 5
13 14 15 43 9 21 -4 50 -13 65 -21z m7158 -34 c0 -5 -2 -10 -4 -10 -3 0 -8 5
-11 10 -3 6 -1 10 4 10 6 0 11 -4 11 -10z m35 -38 c9 -31 -14 -163 -40 -229
-14 -34 -26 -74 -27 -90 -1 -15 -12 -47 -26 -70 -13 -24 -21 -43 -17 -43 4 0
3 -6 -3 -12 -5 -7 -18 -53 -27 -103 -16 -81 -35 -132 -35 -94 0 16 36 166 52
219 6 19 12 46 13 60 1 14 14 68 30 120 30 105 53 218 49 244 -3 22 23 20 31
-2z m686 -9 c-12 -20 -14 -14 -5 12 4 9 9 14 11 11 3 -2 0 -13 -6 -23z m-4568
-11 c10 -10 14 -21 11 -25 -9 -9 -44 16 -44 30 0 18 14 16 33 -5z m-18 -72
c-10 -17 -25 -11 -34 13 -12 32 -3 39 20 16 11 -11 17 -24 14 -29z m4045 -110
c13 -9 13 -11 0 -20 -24 -16 -40 -12 -40 10 0 22 16 26 40 10z m-7310 -10 c0
-5 -4 -10 -10 -10 -5 0 -10 5 -10 10 0 6 5 10 10 10 6 0 10 -4 10 -10z m6384
-102 c-3 -5 -12 -4 -20 3 -19 16 -18 18 6 12 11 -3 17 -9 14 -15z m-308 -153
c-9 -13 -16 -33 -16 -44 0 -18 -17 -38 -25 -29 -2 1 -6 15 -10 31 -6 23 -4 27
13 27 11 0 22 8 25 20 3 11 11 20 17 20 9 0 7 -8 -4 -25z m-2661 -55 c3 -5 1
-10 -4 -10 -6 0 -11 5 -11 10 0 6 2 10 4 10 3 0 8 -4 11 -10z m4505 -140 c0
-5 -2 -10 -4 -10 -3 0 -8 5 -11 10 -3 6 -1 10 4 10 6 0 11 -4 11 -10z m-935
-42 c-10 -51 -16 -70 -21 -65 -6 5 16 97 23 97 3 0 2 -15 -2 -32z m1080 -28
c3 -5 2 -10 -4 -10 -5 0 -13 5 -16 10 -3 6 -2 10 4 10 5 0 13 -4 16 -10z
m-1105 -70 c0 -11 -4 -20 -9 -20 -5 0 -7 9 -4 20 3 11 7 20 9 20 2 0 4 -9 4
-20z m0 -49 c0 -6 -4 -13 -10 -16 -5 -3 -10 1 -10 9 0 9 5 16 10 16 6 0 10 -4
10 -9z m-23 -63 c-3 -7 -5 -2 -5 12 0 14 2 19 5 13 2 -7 2 -19 0 -25z m-7 -52
c0 -22 -20 -70 -26 -63 -8 8 7 77 17 77 5 0 9 -6 9 -14z m260 -76 c0 -4 -7
-13 -15 -20 -13 -11 -15 -8 -15 13 0 19 4 25 15 21 8 -4 15 -10 15 -14z m218
-47 c-1 -29 -7 -43 -29 -61 -43 -35 -54 -17 -19 33 16 24 30 48 30 54 0 6 4
11 9 11 6 0 9 -17 9 -37z m230 4 c2 -10 -4 -20 -13 -23 -21 -8 -25 -3 -18 24
6 25 26 24 31 -1z m-6562 -21 l25 -7 -21 -26 c-11 -14 -20 -31 -20 -38 0 -18
-31 -42 -62 -47 -20 -4 -29 0 -37 19 -6 13 -11 34 -11 47 0 40 89 104 98 70 2
-7 14 -15 28 -18z m5814 -71 c-7 -42 -17 -78 -21 -81 -12 -7 -11 30 1 75 5 20
12 49 15 65 3 15 9 26 12 22 3 -3 0 -40 -7 -81z m-20 -139 c0 -19 -4 -38 -10
-41 -5 -3 -10 -30 -10 -60 0 -54 -13 -76 -32 -57 -8 8 -6 26 6 61 9 27 16 61
16 75 0 13 3 31 6 40 11 28 24 17 24 -18z m-2054 -43 c-10 -10 -19 5 -10 18 6
11 8 11 12 0 2 -7 1 -15 -2 -18z m-3945 -77 c-6 -8 -21 -16 -32 -19 -20 -5
-20 -5 -3 14 20 23 54 28 35 5z m3672 -26 c3 -11 4 -20 3 -20 -2 0 -11 9 -21
20 -15 17 -16 20 -3 20 9 0 18 -9 21 -20z m-3807 -44 c-16 -18 -27 -23 -31
-16 -5 8 -13 6 -26 -6 -11 -9 -22 -15 -25 -12 -6 7 49 48 64 48 5 0 16 7 23
16 7 9 15 12 17 6 1 -5 -8 -22 -22 -36z m64 19 c-7 -9 -15 -13 -17 -11 -7 7 7
26 19 26 6 0 6 -6 -2 -15z m6035 -52 c-4 -27 -11 -64 -17 -83 -6 -19 -11 -45
-12 -57 -1 -13 -5 -22 -11 -21 -10 3 -8 65 3 82 3 6 7 21 9 35 3 25 9 68 12
84 0 4 6 7 12 7 7 0 8 -17 4 -47z m483 -16 c3 -13 -3 -16 -22 -15 -25 2 -34
17 -19 32 12 12 38 2 41 -17z m-42 -62 c2 -16 -2 -25 -12 -25 -8 0 -19 -10
-24 -22 -7 -18 -8 -13 -4 17 10 65 34 83 40 30z m-483 -140 c-5 -13 -23 -22
-23 -11 0 15 14 35 21 31 4 -3 6 -12 2 -20z m562 -23 c-21 -5 -40 12 -30 28 5
8 13 6 27 -7 18 -16 19 -18 3 -21z"/>
<path d="M9406 9801 c-4 -7 -5 -15 -2 -18 9 -9 19 4 14 18 -4 11 -6 11 -12 0z"/>
<path d="M7150 5678 c0 -4 9 -8 20 -8 11 0 20 4 20 8 0 4 -9 8 -20 8 -11 0
-20 -4 -20 -8z"/>
<path d="M6778 5572 c-22 -4 -23 -16 -3 -32 10 -8 19 -9 24 -4 14 14 -2 40
-21 36z"/>
<path d="M6920 5552 c0 -14 45 -59 56 -55 8 3 21 2 30 -1 12 -5 14 -10 5 -19
-8 -11 -5 -17 14 -27 30 -16 44 -6 27 20 -7 11 -12 29 -12 39 0 20 -13 33 -40
39 -22 5 -80 8 -80 4z"/>
<path d="M6824 5523 c-3 -10 -10 -26 -15 -35 -10 -20 -6 -22 20 -8 11 5 19 20
19 35 0 29 -16 34 -24 8z"/>
<path d="M6864 5499 c-9 -15 6 -29 31 -29 17 0 23 4 19 14 -7 17 -42 28 -50
15z"/>
<path d="M6720 5300 c0 -5 5 -10 10 -10 6 0 10 5 10 10 0 6 -4 10 -10 10 -5 0
-10 -4 -10 -10z"/>
<path d="M6225 5280 c-3 -5 -2 -10 4 -10 5 0 13 5 16 10 3 6 2 10 -4 10 -5 0
-13 -4 -16 -10z"/>
<path d="M7850 5614 c0 -8 5 -12 10 -9 6 3 10 10 10 16 0 5 -4 9 -10 9 -5 0
-10 -7 -10 -16z"/>
<path d="M7440 5299 c0 -38 24 -35 28 4 2 19 -1 27 -12 27 -11 0 -16 -10 -16
-31z"/>
<path d="M1500 10230 c20 -5 39 -5 45 1 5 5 -8 9 -35 8 l-45 -1 35 -8z"/>
<path d="M1582 10229 c10 -5 15 -17 12 -27 -4 -12 -3 -13 3 -4 5 6 18 19 29
27 18 13 16 14 -21 14 -31 0 -36 -2 -23 -10z"/>
<path d="M1708 10233 c6 -2 18 -2 25 0 6 3 1 5 -13 5 -14 0 -19 -2 -12 -5z"/>
<path d="M66 8941 c-4 -7 -5 -15 -2 -18 9 -9 19 4 14 18 -4 11 -6 11 -12 0z"/>
<path d="M4017 8396 c-11 -8 -14 -17 -8 -20 5 -4 15 3 21 14 13 23 11 24 -13
6z"/>
<path d="M6095 8000 c-8 -12 20 -24 35 -15 6 3 8 11 5 16 -8 12 -32 12 -40 -1z"/>
<path d="M6191 7934 c0 -11 3 -14 6 -6 3 7 2 16 -1 19 -3 4 -6 -2 -5 -13z"/>
<path d="M6070 7925 c0 -9 6 -12 15 -9 8 4 12 10 9 15 -8 14 -24 10 -24 -6z"/>
<path d="M5855 7921 c-10 -17 12 -21 25 -6 10 12 10 15 -3 15 -9 0 -18 -4 -22
-9z"/>
<path d="M5892 7895 c-16 -9 -20 -15 -12 -20 6 -4 10 -15 7 -25 -4 -15 0 -16
22 -11 14 4 26 13 25 19 -1 7 -2 21 -2 32 -2 23 -7 23 -40 5z"/>
<path d="M6099 7880 c-9 -9 -23 -20 -30 -22 -10 -4 -11 -9 -3 -17 7 -8 19 -4
42 15 17 15 29 30 26 35 -7 13 -17 10 -35 -11z"/>
<path d="M6760 7854 c0 -9 5 -14 12 -12 18 6 21 28 4 28 -9 0 -16 -7 -16 -16z"/>
<path d="M6440 7840 c0 -11 6 -20 14 -20 8 0 21 -3 30 -6 20 -8 21 12 2 32
-21 21 -46 17 -46 -6z"/>
<path d="M6175 7701 c-3 -5 -1 -12 5 -16 5 -3 10 1 10 9 0 18 -6 21 -15 7z"/>
<path d="M6340 7644 c0 -8 5 -12 10 -9 6 3 10 10 10 16 0 5 -4 9 -10 9 -5 0
-10 -7 -10 -16z"/>
<path d="M6385 7610 c-3 -5 -1 -10 4 -10 6 0 11 5 11 10 0 6 -2 10 -4 10 -3 0
-8 -4 -11 -10z"/>
<path d="M6420 7610 c0 -5 5 -10 10 -10 6 0 10 5 10 10 0 6 -4 10 -10 10 -5 0
-10 -4 -10 -10z"/>
<path d="M5738 7133 c7 -3 16 -2 19 1 4 3 -2 6 -13 5 -11 0 -14 -3 -6 -6z"/>
<path d="M2837 7093 c-3 -4 -5 -28 -5 -52 -1 -26 -7 -50 -18 -62 -12 -13 -14
-23 -7 -30 10 -10 26 18 36 66 5 19 5 19 12 -2 9 -27 22 -30 27 -5 8 38 -30
110 -45 85z"/>
<path d="M5935 7070 c-4 -7 -1 -16 6 -21 23 -14 32 -10 18 9 -7 9 -14 18 -15
20 -1 2 -5 -2 -9 -8z"/>
<path d="M5658 7020 c21 -23 23 -23 39 -7 16 16 16 17 -4 17 -12 0 -29 3 -39
7 -15 6 -14 2 4 -17z"/>
<path d="M5600 6985 c0 -3 9 -14 21 -26 16 -16 23 -18 35 -9 18 16 7 32 -17
25 -11 -4 -19 -2 -19 4 0 6 -4 11 -10 11 -5 0 -10 -2 -10 -5z"/>
<path d="M5560 6970 c0 -5 7 -10 15 -10 8 0 15 5 15 10 0 6 -7 10 -15 10 -8 0
-15 -4 -15 -10z"/>
<path d="M5476 6931 c-4 -7 -5 -15 -2 -18 9 -9 19 4 14 18 -4 11 -6 11 -12 0z"/>
<path d="M5380 6901 c0 -10 19 -25 25 -20 1 2 -3 10 -11 17 -8 7 -14 8 -14 3z"/>
<path d="M4899 6828 c-1 -7 -1 -19 0 -26 1 -7 -11 -23 -26 -37 -22 -19 -35
-23 -60 -19 -26 5 -34 2 -49 -21 -17 -26 -17 -28 -1 -40 15 -11 16 -13 2 -19
-8 -3 -15 -15 -15 -26 0 -13 -10 -25 -27 -32 -16 -7 -29 -13 -31 -14 -3 -2 7
-23 25 -53 2 -2 11 6 22 17 25 29 33 28 31 -5 -3 -44 -1 -53 14 -53 17 0 31
-68 21 -100 -5 -17 -2 -20 19 -20 14 0 26 -4 26 -10 0 -17 28 -11 33 8 4 14 6
13 12 -6 9 -27 26 -24 42 8 6 13 24 36 38 52 l26 27 -16 68 c-9 37 -23 82 -31
100 -8 17 -14 49 -14 70 0 22 -3 43 -7 47 -4 4 -8 15 -8 24 -1 9 -2 29 -3 45
-2 27 -21 39 -23 15z m-88 -301 c-16 -16 -26 0 -10 19 9 11 15 12 17 4 2 -6
-1 -17 -7 -23z"/>
<path d="M4805 6770 c-3 -5 -1 -10 4 -10 6 0 11 5 11 10 0 6 -2 10 -4 10 -3 0
-8 -4 -11 -10z"/>
<path d="M4390 6505 c-19 -21 -21 -25 -7 -25 9 0 17 -4 17 -10 0 -14 -23 -13
-38 2 -9 9 -14 6 -20 -13 -5 -13 -12 -23 -16 -21 -3 1 -7 2 -8 2 -37 -7 -166
-5 -175 2 -8 7 -13 7 -13 1 0 -5 -33 -16 -72 -23 -40 -7 -80 -19 -89 -27 -8
-7 -26 -13 -39 -13 -19 0 -21 -2 -10 -15 17 -20 7 -29 -33 -27 -17 0 -43 -4
-57 -10 -72 -31 -96 -42 -110 -50 -8 -5 -23 -11 -32 -14 -10 -4 -20 -16 -23
-28 -9 -31 -29 -70 -40 -78 -5 -4 -21 -8 -35 -8 -43 -1 -53 -13 -38 -45 10
-22 10 -29 0 -33 -17 -5 -15 -22 3 -22 20 0 31 28 16 43 -17 17 -13 27 10 27
11 0 17 -4 14 -10 -3 -5 -1 -10 4 -10 6 0 11 5 11 10 0 16 25 12 51 -8 33 -25
87 -43 94 -31 4 5 14 5 26 -1 15 -8 19 -7 19 3 0 21 44 16 48 -6 2 -9 -4 -20
-12 -23 -9 -3 -16 -12 -16 -19 0 -25 -20 -27 -39 -4 l-18 23 -18 -37 c-9 -20
-23 -37 -30 -37 -7 0 -18 -7 -25 -15 -7 -8 -20 -15 -30 -15 -9 0 -57 -38 -106
-85 -49 -47 -91 -85 -94 -85 -3 0 -7 -12 -8 -27 -1 -15 -6 -29 -11 -32 -5 -3
-14 -26 -21 -50 -6 -24 -23 -55 -37 -69 l-26 -26 22 -14 c11 -8 21 -18 21 -22
0 -13 -51 -30 -94 -30 -49 0 -61 -7 -44 -27 9 -11 5 -16 -21 -26 -29 -11 -42
-27 -21 -27 5 0 59 14 120 30 61 16 113 30 115 30 3 0 -4 -14 -17 -30 -21 -29
-69 -60 -92 -60 -6 0 -20 -10 -30 -21 -18 -22 -18 -22 10 -15 57 15 98 41 153
98 31 33 60 67 65 76 12 24 58 72 68 72 5 0 22 10 38 22 21 15 33 18 42 11 8
-7 39 -9 76 -6 52 4 62 2 62 -11 0 -15 11 -20 37 -17 8 1 10 -5 7 -14 -8 -19
10 -20 26 0 10 12 10 18 0 30 -7 9 -10 19 -6 22 4 4 11 1 15 -6 6 -9 11 -10
15 -2 9 14 46 15 46 1 0 -5 -7 -10 -15 -10 -22 0 -41 -40 -24 -51 8 -5 21 -6
29 -3 40 16 48 15 55 -6 5 -15 2 -26 -6 -32 -14 -9 25 -7 60 3 9 3 15 -6 18
-24 3 -22 -1 -29 -24 -39 -15 -6 -32 -12 -38 -12 -23 -3 -55 -18 -55 -26 0
-12 16 -21 24 -13 11 12 42 10 53 -3 9 -9 5 -13 -15 -17 -15 -3 -52 -11 -82
-17 -30 -7 -112 -12 -182 -13 -71 -1 -128 -5 -128 -8 0 -8 4 -8 177 -14 135
-5 230 10 336 50 20 8 46 15 57 15 19 0 19 -1 2 -21 -9 -11 -33 -27 -52 -35
-19 -9 -50 -22 -68 -30 -18 -8 -39 -14 -47 -14 -8 0 -15 -4 -15 -9 0 -21 23
-22 61 -2 22 12 48 21 58 21 10 0 45 18 77 40 33 22 67 40 77 40 21 0 23 18 2
26 -19 8 -1 34 23 34 12 0 13 -3 4 -12 -7 -7 -12 -16 -12 -20 0 -15 27 -8 45
12 10 11 24 20 32 20 7 0 16 7 19 15 3 8 14 17 25 20 10 4 19 15 19 26 0 10 6
19 14 19 20 0 83 73 101 117 13 29 14 42 5 56 -12 20 -5 34 32 68 23 21 23 32
-2 54 -28 25 -25 37 8 34 63 -5 65 -3 60 51 -3 30 -1 50 5 50 5 0 -2 11 -17
25 -14 13 -26 29 -26 35 0 5 -9 10 -20 10 -15 0 -20 7 -20 25 0 18 4 23 15 19
20 -8 19 3 -5 36 -12 17 -22 50 -25 83 -6 85 -16 125 -31 131 -25 10 -15 27
11 20 28 -7 32 3 11 31 -8 12 -19 16 -31 11 -20 -7 -55 19 -55 41 0 14 -60 92
-71 93 -3 0 -16 -11 -29 -25z m-509 -590 c-1 -6 -4 -10 -8 -11 -19 -2 -51 -20
-88 -49 -56 -44 -75 -50 -75 -22 0 23 53 67 81 67 8 0 19 4 25 9 19 19 66 23
65 6z m-28 -214 c23 -39 22 -41 -15 -41 -62 1 -92 52 -36 63 13 2 25 5 28 6 3
0 13 -12 23 -28z m697 19 c0 -5 -4 -10 -10 -10 -5 0 -10 5 -10 10 0 6 5 10 10
10 6 0 10 -4 10 -10z"/>
<path d="M4977 6415 c-13 -10 -15 -15 -5 -23 9 -7 16 -6 25 3 17 19 1 36 -20
20z"/>
<path d="M7320 6391 c0 -9 23 -21 41 -21 4 0 6 7 3 15 -7 16 -44 21 -44 6z"/>
<path d="M5070 6370 c0 -5 5 -10 10 -10 6 0 10 5 10 10 0 6 -4 10 -10 10 -5 0
-10 -4 -10 -10z"/>
<path d="M4607 6293 c-7 -11 10 -40 18 -31 4 4 3 14 -3 24 -5 9 -12 12 -15 7z"/>
<path d="M7510 6266 c0 -8 7 -16 15 -20 9 -3 15 0 15 8 0 8 -7 16 -15 20 -9 3
-15 0 -15 -8z"/>
<path d="M3518 6250 c-20 -11 -40 -25 -44 -31 -3 -6 6 -3 22 7 15 11 31 18 34
17 10 -5 40 8 40 18 0 13 -10 11 -52 -11z"/>
<path d="M7565 6160 c-3 -5 -2 -10 4 -10 5 0 13 5 16 10 3 6 2 10 -4 10 -5 0
-13 -4 -16 -10z"/>
<path d="M3627 5973 c-12 -12 -7 -22 8 -17 8 4 15 10 15 15 0 11 -14 12 -23 2z"/>
<path d="M2375 5463 c4 -16 9 -107 11 -204 4 -162 6 -182 29 -233 14 -31 25
-63 25 -71 0 -8 14 -24 30 -37 17 -12 30 -27 30 -32 0 -6 9 -22 20 -36 11 -14
20 -33 20 -42 0 -10 5 -18 11 -18 14 0 5 50 -15 90 -7 15 -21 63 -30 106 -10
43 -22 88 -26 100 -12 29 -5 196 9 222 6 11 11 37 11 57 0 20 4 45 10 55 12
22 0 33 -60 54 -69 24 -84 22 -75 -11z"/>
<path d="M3946 5421 c-4 -7 -5 -15 -2 -18 9 -9 19 4 14 18 -4 11 -6 11 -12 0z"/>
<path d="M5177 5334 c-4 -4 -7 -14 -7 -23 0 -11 3 -12 11 -4 6 6 10 16 7 23
-2 6 -7 8 -11 4z"/>
<path d="M3940 5270 c0 -5 5 -10 10 -10 6 0 10 5 10 10 0 6 -4 10 -10 10 -5 0
-10 -4 -10 -10z"/>
<path d="M3850 5240 c0 -5 7 -10 15 -10 8 0 15 5 15 10 0 6 -7 10 -15 10 -8 0
-15 -4 -15 -10z"/>
<path d="M2804 5093 c-11 -18 -18 -49 -19 -89 -1 -40 -9 -76 -23 -102 -14 -28
-20 -56 -19 -96 1 -39 -2 -56 -10 -56 -7 0 -13 -7 -13 -16 0 -8 5 -12 11 -9
13 9 40 -25 34 -42 -6 -18 10 -16 29 3 19 18 53 11 59 -14 2 -9 3 19 0 63 -3
62 1 93 17 139 30 88 23 179 -18 227 -22 25 -26 24 -48 -8z"/>
<path d="M5220 4887 c0 -8 8 -22 19 -31 17 -15 19 -15 25 -1 12 32 6 45 -19
45 -14 0 -25 -6 -25 -13z"/>
<path d="M5160 4856 c0 -33 16 -42 30 -16 12 23 6 40 -16 40 -8 0 -14 -10 -14
-24z"/>
<path d="M5117 4833 c-14 -13 -7 -43 10 -43 9 0 13 3 10 6 -3 4 -2 15 4 25 7
14 6 19 -4 19 -8 0 -17 -3 -20 -7z"/>
<path d="M4238 4763 c-18 -5 -26 -33 -9 -33 5 0 19 9 32 20 24 19 16 24 -23
13z"/>
<path d="M2766 4607 c1 -19 5 -40 10 -48 5 -8 9 -25 9 -39 1 -32 46 -51 75
-32 11 7 31 12 46 12 24 0 25 -3 23 -42 -3 -33 0 -42 16 -48 11 -4 23 -6 27
-4 8 5 -7 61 -20 77 -5 7 -13 23 -17 37 -4 13 -21 45 -37 70 l-30 45 6 -42 c4
-24 4 -43 2 -43 -17 0 -64 34 -76 56 -22 39 -35 39 -34 1z"/>
<path d="M3790 4501 c0 -30 14 -32 27 -5 10 21 9 24 -8 24 -12 0 -19 -7 -19
-19z"/>
<path d="M3824 4437 c-3 -16 -15 -28 -31 -32 -18 -4 -23 -9 -15 -17 6 -6 8
-17 5 -24 -9 -23 18 -16 39 11 11 14 26 25 34 25 11 0 14 8 12 27 -4 37 -35
43 -44 10z"/>
<path d="M4533 4155 c-9 -24 1 -27 15 -5 8 13 8 20 2 20 -6 0 -13 -7 -17 -15z"/>
<path d="M4630 4120 c0 -5 5 -10 10 -10 6 0 10 5 10 10 0 6 -4 10 -10 10 -5 0
-10 -4 -10 -10z"/>
<path d="M4422 4094 c-11 -19 -4 -54 9 -54 5 0 9 9 9 19 0 11 5 23 10 26 15 9
12 25 -5 25 -7 0 -18 -7 -23 -16z"/>
<path d="M4560 4095 c-8 -9 -8 -15 -2 -15 12 0 26 19 19 26 -2 2 -10 -2 -17
-11z"/>
<path d="M4360 4010 c0 -5 5 -10 10 -10 6 0 10 5 10 10 0 6 -4 10 -10 10 -5 0
-10 -4 -10 -10z"/>
<path d="M4295 3570 c3 -5 8 -10 11 -10 2 0 4 5 4 10 0 6 -5 10 -11 10 -5 0
-7 -4 -4 -10z"/>
<path d="M4280 3450 c0 -5 5 -10 10 -10 6 0 10 5 10 10 0 6 -4 10 -10 10 -5 0
-10 -4 -10 -10z"/>
<path d="M4902 3378 c-23 -5 -40 -13 -37 -19 9 -14 125 -9 125 6 0 7 -7 16
-16 19 -18 7 -15 7 -72 -6z"/>
<path d="M5116 3184 c-4 -11 -1 -14 11 -12 9 2 18 9 21 16 6 18 -25 15 -32 -4z"/>
<path d="M5215 3130 c-3 -5 -1 -10 4 -10 6 0 11 5 11 10 0 6 -2 10 -4 10 -3 0
-8 -4 -11 -10z"/>
<path d="M4212 2893 c2 -10 10 -18 18 -18 8 0 16 8 18 18 2 12 -3 17 -18 17
-15 0 -20 -5 -18 -17z"/>
<path d="M4160 2840 c0 -5 9 -10 21 -10 11 0 17 5 14 10 -3 6 -13 10 -21 10
-8 0 -14 -4 -14 -10z"/>
<path d="M4230 2830 c0 -5 9 -14 21 -20 19 -11 20 -10 9 9 -11 22 -30 29 -30
11z"/>
<path d="M4162 2753 c-8 -8 -11 -21 -7 -31 6 -14 9 -11 16 12 10 36 8 39 -9
19z"/>
<path d="M4318 2723 c7 -3 16 -2 19 1 4 3 -2 6 -13 5 -11 0 -14 -3 -6 -6z"/>
<path d="M5640 2714 c0 -8 5 -12 10 -9 6 3 10 10 10 16 0 5 -4 9 -10 9 -5 0
-10 -7 -10 -16z"/>
<path d="M5480 2685 c-7 -19 -17 -25 -39 -25 -37 0 -46 -12 -21 -28 12 -7 21
-8 25 -2 12 19 52 11 60 -12 5 -18 8 -19 12 -8 3 8 12 19 19 23 8 4 14 13 14
18 0 15 -26 39 -34 32 -3 -4 -6 1 -6 10 0 26 -19 20 -30 -8z"/>
<path d="M4250 2650 c0 -5 7 -10 15 -10 8 0 15 5 15 10 0 6 -7 10 -15 10 -8 0
-15 -4 -15 -10z"/>
<path d="M5560 2634 c-22 -12 -22 -14 -6 -20 18 -7 41 8 35 23 -2 5 -15 3 -29
-3z"/>
<path d="M5440 2584 c-14 -8 -31 -12 -37 -9 -7 2 -13 0 -13 -5 0 -6 8 -10 18
-10 10 0 23 -5 30 -12 9 -9 12 -9 12 0 0 7 8 12 18 12 26 0 34 11 21 27 -13
15 -16 15 -49 -3z"/>
<path d="M5336 2569 c-25 -25 -11 -25 21 1 14 11 19 20 12 19 -8 0 -23 -9 -33
-20z"/>
<path d="M5472 2538 c-22 -22 -14 -39 16 -32 34 9 36 10 29 29 -8 18 -28 20
-45 3z"/>
<path d="M5396 2502 c-2 -4 -3 -23 -2 -42 2 -19 -1 -43 -6 -52 -13 -27 5 -22
33 8 16 18 20 28 12 31 -15 5 -17 33 -3 33 6 0 10 7 10 15 0 15 -35 21 -44 7z"/>
<path d="M4346 2431 c-3 -5 1 -14 9 -21 13 -10 15 -9 15 9 0 21 -14 28 -24 12z"/>
<path d="M4401 2408 c-13 -35 4 -58 44 -58 35 0 46 -13 23 -24 -7 -4 -4 -5 7
-3 11 2 26 -2 33 -10 20 -21 42 -16 40 10 0 12 1 28 3 36 2 7 -2 16 -8 18 -7
3 -13 0 -13 -6 0 -17 -24 -13 -42 7 -58 60 -74 65 -87 30z"/>
<path d="M5460 2410 c-13 -8 -12 -10 3 -10 9 0 17 5 17 10 0 12 -1 12 -20 0z"/>
<path d="M4300 2356 c0 -2 9 -6 20 -9 11 -3 18 -1 14 4 -5 9 -34 13 -34 5z"/>
<path d="M4660 2305 c0 -8 7 -15 16 -15 14 0 14 3 4 15 -7 8 -14 15 -16 15 -2
0 -4 -7 -4 -15z"/>
<path d="M4445 2300 c-3 -6 1 -13 10 -16 9 -4 21 -17 26 -30 11 -30 29 -31 22
-1 -6 24 -31 57 -44 57 -4 0 -11 -5 -14 -10z"/>
<path d="M4557 2271 c-2 -20 -3 -37 -2 -39 1 -1 14 2 29 8 15 5 25 6 22 1 -6
-9 32 -20 50 -14 6 2 9 14 7 27 -5 25 -31 42 -75 49 -24 3 -27 0 -31 -32z"/>
<path d="M4380 2260 c-22 -6 -23 -8 -7 -15 11 -4 23 -3 30 4 15 15 7 19 -23
11z"/>
<path d="M4680 2221 c0 -5 7 -11 15 -15 8 -3 15 -13 15 -23 0 -23 65 -83 88
-82 14 0 13 3 -6 16 -13 9 -29 31 -37 50 -8 18 -20 33 -28 33 -8 0 -17 7 -21
15 -6 16 -26 21 -26 6z"/>
<path d="M4509 2157 c7 -7 18 -7 33 0 20 9 20 10 -10 10 -22 0 -29 -4 -23 -10z"/>
<path d="M4565 2151 c-3 -5 -1 -12 5 -16 5 -3 10 1 10 9 0 18 -6 21 -15 7z"/>
<path d="M5167 2113 c-7 -11 30 -50 38 -41 3 3 -3 16 -13 28 -11 14 -21 19
-25 13z"/>
<path d="M4546 2091 c-3 -5 0 -11 8 -14 15 -6 26 1 26 15 0 11 -27 10 -34 -1z"/>
<path d="M4817 2079 c-3 -13 -1 -19 6 -16 15 5 22 37 9 37 -5 0 -12 -9 -15
-21z"/>
<path d="M4920 2080 c0 -5 7 -7 15 -4 8 4 15 8 15 10 0 2 -7 4 -15 4 -8 0 -15
-4 -15 -10z"/>
<path d="M5042 2058 c3 -7 17 -15 33 -18 16 -3 31 -14 35 -24 6 -18 7 -18 13
-2 7 18 -8 56 -21 56 -5 0 -13 -5 -20 -12 -9 -9 -12 -9 -12 0 0 7 -7 12 -16
12 -9 0 -14 -6 -12 -12z"/>
<path d="M5030 2021 c0 -5 5 -13 10 -16 6 -3 10 -2 10 4 0 5 -4 13 -10 16 -5
3 -10 2 -10 -4z"/>
<path d="M5067 1994 c-3 -3 -3 -13 0 -21 4 -9 -2 -16 -16 -20 -29 -7 -27 -27
4 -41 34 -16 40 -15 25 3 -10 12 -9 20 4 40 20 31 6 62 -17 39z"/>
<path d="M4700 1966 c0 -9 5 -16 10 -16 6 0 10 4 10 9 0 6 -4 13 -10 16 -5 3
-10 -1 -10 -9z"/>
<path d="M4048 1950 c-20 -11 -45 -31 -56 -45 -11 -14 -30 -25 -43 -25 -17 -1
-35 -15 -59 -48 -19 -26 -38 -49 -41 -52 -3 -3 -21 -36 -40 -75 -18 -38 -39
-76 -47 -84 -11 -11 -10 -16 5 -27 16 -13 16 -15 3 -26 -20 -16 -43 -73 -38
-89 2 -7 -2 -20 -9 -28 -22 -25 -98 -143 -109 -171 -6 -14 -10 -40 -9 -57 2
-29 0 -32 -22 -27 -12 4 -23 2 -23 -4 0 -5 -10 -13 -22 -17 -20 -6 -18 -8 17
-16 84 -19 136 -65 121 -105 -16 -43 37 23 61 76 30 63 84 152 90 146 2 -2
-20 -55 -50 -117 -29 -63 -64 -141 -76 -174 -13 -33 -36 -91 -52 -130 -25 -63
-68 -176 -118 -310 -10 -27 -35 -102 -55 -165 -21 -63 -41 -124 -46 -135 -18
-40 -41 -118 -36 -122 12 -12 136 340 136 385 0 11 6 25 13 31 8 6 20 30 27
53 34 108 84 217 125 273 12 17 25 48 29 70 4 21 16 51 27 66 10 15 19 31 19
37 0 5 7 15 15 22 13 11 14 10 9 -5 -6 -15 -3 -17 25 -13 28 4 32 2 28 -14 -3
-11 2 -22 15 -29 15 -8 18 -17 13 -38 -4 -21 -2 -30 11 -35 23 -9 30 1 16 24
-13 21 -3 33 17 20 9 -5 11 -17 7 -34 -6 -24 -18 -30 -53 -29 -7 1 -13 -3 -13
-8 0 -5 7 -9 15 -9 8 0 22 -16 31 -35 9 -19 21 -35 26 -35 6 0 7 -8 3 -17 -4
-10 -7 -28 -7 -40 1 -11 -5 -24 -13 -27 -8 -3 -15 -10 -15 -15 0 -6 7 -8 15
-5 11 4 13 2 9 -9 -3 -8 0 -18 6 -22 6 -4 8 -15 5 -25 -3 -11 1 -31 11 -45 10
-15 12 -25 5 -25 -6 0 -11 -7 -11 -15 0 -8 3 -14 8 -14 19 3 23 -2 12 -16 -9
-10 -9 -15 -1 -15 6 0 11 -12 11 -27 0 -29 12 -56 24 -54 3 1 17 -1 31 -5 20
-5 23 -9 14 -20 -8 -9 -16 -11 -28 -4 -22 11 -63 2 -58 -14 2 -6 13 -12 25
-14 12 -2 22 -7 22 -12 0 -5 3 -17 6 -27 6 -15 4 -16 -7 -6 -18 18 -50 17 -43
-1 3 -8 -3 -16 -15 -19 -21 -5 -25 5 -24 51 1 6 -5 12 -13 12 -15 0 -54 38
-54 53 0 5 6 7 14 4 22 -9 25 16 4 36 -10 9 -21 17 -25 18 -11 1 -5 19 12 36
19 18 19 24 1 17 -13 -5 -66 35 -66 50 0 3 9 6 19 6 11 0 23 5 26 10 3 6 1 10
-4 10 -19 0 -12 30 8 38 16 6 17 10 7 24 -12 16 -15 13 -37 -30 -21 -41 -28
-47 -55 -46 l-30 2 15 -34 c12 -27 21 -34 38 -31 21 4 23 0 14 -55 0 -5 -8 -8
-16 -8 -8 0 -15 -4 -15 -9 0 -12 44 -22 48 -11 5 13 32 13 32 0 0 -5 -7 -10
-15 -10 -8 0 -15 -9 -15 -20 0 -24 -15 -27 -24 -4 -3 8 -10 12 -16 9 -6 -4 -2
-17 10 -33 12 -15 19 -35 16 -47 -6 -24 18 -60 33 -50 15 9 13 -15 -4 -45 -19
-33 -18 -42 3 -39 45 4 57 -1 57 -26 0 -21 -2 -23 -11 -10 -22 30 -40 18 -36
-25 3 -24 0 -40 -7 -40 -6 0 -8 -11 -4 -30 3 -20 1 -30 -6 -30 -8 0 -10 -8 -6
-20 4 -12 1 -27 -5 -35 -9 -11 -9 -15 -1 -15 6 0 11 5 11 10 0 14 57 13 62 -2
2 -6 15 0 31 15 14 15 33 27 42 27 8 0 16 5 16 10 1 6 2 15 3 21 0 6 9 16 19
23 9 7 17 19 18 27 0 8 5 -1 10 -19 6 -20 15 -32 22 -29 9 3 11 -8 8 -39 l-3
-44 36 0 c25 0 36 4 36 15 0 8 -7 15 -15 15 -18 0 -18 4 -3 48 11 29 10 35 -5
43 -29 17 -21 40 11 33 21 -4 24 -3 12 5 -12 9 -11 11 8 11 25 0 27 11 11 42
-9 18 -8 24 7 35 28 20 36 16 29 -17 -4 -19 -3 -30 4 -30 15 0 14 -46 -1 -69
-9 -15 -9 -23 2 -36 13 -16 15 -16 21 2 4 10 8 30 8 46 1 15 6 27 11 27 15 0
12 -76 -5 -117 -8 -19 -15 -39 -15 -44 0 -5 63 -9 140 -9 77 0 140 2 140 4 0
2 -18 59 -41 127 -22 68 -54 177 -70 243 -16 65 -36 134 -44 153 -23 55 -18
87 6 34 29 -66 122 -216 126 -204 2 6 -12 64 -31 129 -54 187 -74 281 -81 389
-10 155 -28 253 -115 620 -88 372 -118 476 -138 475 -4 -1 -23 -10 -44 -20z
m-134 -736 c9 -24 7 -28 -9 -14 -17 14 -20 30 -6 30 5 0 12 -7 15 -16z m76
-204 c0 -5 -2 -10 -4 -10 -3 0 -8 5 -11 10 -3 6 -1 10 4 10 6 0 11 -4 11 -10z
m10 -60 c6 -11 10 -37 9 -58 -1 -20 2 -49 6 -64 4 -16 3 -28 -1 -28 -15 0 -36
58 -29 79 4 15 1 20 -17 23 -27 4 -40 48 -14 48 9 0 16 5 16 10 0 17 19 11 30
-10z m10 -172 c21 -23 27 -58 9 -58 -5 0 -8 -4 -5 -9 3 -5 -3 -11 -14 -14 -11
-3 -20 -2 -20 3 0 4 -9 10 -20 13 -11 3 -20 11 -20 17 0 8 9 10 24 6 28 -7 44
10 27 27 -11 11 -15 37 -6 37 2 0 13 -10 25 -22z m277 -80 c-3 -7 -5 -2 -5 12
0 14 2 19 5 13 2 -7 2 -19 0 -25z m-300 -24 c-3 -3 -12 -4 -19 -1 -8 3 -5 6 6
6 11 1 17 -2 13 -5z m310 -36 c-3 -7 -5 -2 -5 12 0 14 2 19 5 13 2 -7 2 -19 0
-25z m-302 -38 c-3 -5 -12 -10 -18 -10 -7 0 -6 4 3 10 19 12 23 12 15 0z m25
-80 c0 -5 -4 -10 -10 -10 -5 0 -10 5 -10 10 0 6 5 10 10 10 6 0 10 -4 10 -10z
m14 -26 c20 -8 11 -24 -15 -24 -19 0 -25 11 -12 23 8 8 8 8 27 1z m64 -65 c-3
-8 -7 -3 -11 10 -4 17 -3 21 5 13 5 -5 8 -16 6 -23z m-198 -99 c0 -5 -7 -10
-16 -10 -8 0 -12 5 -9 10 3 6 10 10 16 10 5 0 9 -4 9 -10z m240 -16 c0 -12
-37 -44 -52 -44 -28 0 -30 17 -2 39 21 16 54 20 54 5z m-213 -44 c3 -11 12
-20 19 -20 8 0 14 -4 14 -10 0 -13 -3 -13 -35 2 -14 6 -25 19 -25 30 0 24 21
23 27 -2z m14 -93 c-5 -12 -17 -23 -27 -24 -17 -3 -17 -2 -2 5 12 5 15 11 8
22 -15 23 -12 29 9 23 15 -4 18 -10 12 -26z m123 -28 c-3 -5 -10 -7 -15 -3 -5
3 -7 10 -3 15 3 5 10 7 15 3 5 -3 7 -10 3 -15z m-124 -29 c0 -8 -42 -22 -48
-15 -2 2 2 10 9 18 14 14 39 12 39 -3z m-30 -61 c0 -5 -7 -9 -15 -9 -8 0 -15
7 -15 15 0 9 6 12 15 9 8 -4 15 -10 15 -15z"/>
<path d="M8310 1912 c0 -5 7 -15 15 -22 8 -7 15 -8 15 -2 0 5 -7 15 -15 22 -8
7 -15 8 -15 2z"/>
<path d="M5235 1712 c-5 -4 -16 -15 -24 -24 -12 -16 -11 -18 3 -18 10 0 14 5
11 10 -3 6 -1 10 5 10 7 0 14 -9 17 -21 3 -11 11 -18 19 -15 7 3 14 0 17 -7 2
-6 6 -1 9 11 4 14 2 22 -7 22 -7 0 -15 9 -18 20 -5 21 -15 25 -32 12z"/>
<path d="M5260 1590 c0 -5 5 -10 10 -10 6 0 10 5 10 10 0 6 -4 10 -10 10 -5 0
-10 -4 -10 -10z"/>
<path d="M5195 1580 c3 -5 8 -10 11 -10 2 0 4 5 4 10 0 6 -5 10 -11 10 -5 0
-7 -4 -4 -10z"/>
<path d="M5206 1505 c7 -17 20 -20 28 -6 3 5 -1 12 -10 15 -22 9 -24 8 -18 -9z"/>
<path d="M5270 1410 c0 -5 4 -10 9 -10 6 0 13 5 16 10 3 6 -1 10 -9 10 -9 0
-16 -4 -16 -10z"/>
<path d="M5250 1360 c0 -5 7 -10 15 -10 8 0 15 5 15 10 0 6 -7 10 -15 10 -8 0
-15 -4 -15 -10z"/>
<path d="M1078 1326 c-10 -7 -15 -16 -12 -19 7 -7 44 14 44 25 0 12 -13 9 -32
-6z"/>
<path d="M1026 1296 c-7 -18 -24 -43 -37 -55 -16 -14 -18 -21 -8 -21 8 0 26
11 41 25 15 14 32 25 38 25 5 0 10 5 10 10 0 6 -7 10 -16 10 -11 0 -14 6 -9
20 10 33 -4 23 -19 -14z"/>
<path d="M5460 1240 c-12 -7 -12 -12 -2 -22 6 -6 12 -22 12 -35 0 -24 14 -31
25 -13 4 6 8 26 9 45 3 37 -12 45 -44 25z"/>
<path d="M5420 1130 c0 -5 5 -10 10 -10 6 0 10 5 10 10 0 6 -4 10 -10 10 -5 0
-10 -4 -10 -10z"/>
<path d="M3806 995 c-3 -8 -1 -15 4 -15 5 0 7 -8 3 -17 -3 -10 -3 -15 2 -11 4
4 14 3 21 -3 10 -9 15 -7 20 4 7 19 -1 34 -26 47 -13 7 -19 6 -24 -5z"/>
<path d="M3640 979 c0 -5 5 -7 10 -4 6 3 10 8 10 11 0 2 -4 4 -10 4 -5 0 -10
-5 -10 -11z"/>
<path d="M6605 941 c-3 -5 -1 -12 4 -15 5 -3 11 1 15 9 6 16 -9 21 -19 6z"/>
<path d="M5970 933 c-14 -3 -28 -10 -32 -17 -6 -8 -11 -7 -18 4 -5 8 -10 10
-10 4 0 -6 -11 -17 -25 -24 -26 -14 -33 -30 -14 -30 7 0 17 7 24 16 6 10 24
18 39 20 24 2 27 0 23 -17 -4 -15 -1 -19 11 -17 9 2 19 17 23 36 3 17 6 31 5
31 0 -1 -12 -4 -26 -6z"/>
<path d="M3620 909 c0 -5 5 -7 10 -4 6 3 10 8 10 11 0 2 -4 4 -10 4 -5 0 -10
-5 -10 -11z"/>
<path d="M5736 852 c-3 -6 -1 -14 5 -17 15 -10 25 3 12 16 -7 7 -13 7 -17 1z"/>
<path d="M1855 820 c3 -5 8 -10 11 -10 2 0 4 5 4 10 0 6 -5 10 -11 10 -5 0 -7
-4 -4 -10z"/>
<path d="M9800 810 c0 -13 18 -22 24 -11 3 5 -1 11 -9 15 -8 3 -15 1 -15 -4z"/>
<path d="M2151 784 c0 -11 3 -14 6 -6 3 7 2 16 -1 19 -3 4 -6 -2 -5 -13z"/>
<path d="M10135 790 c-3 -5 -3 -14 0 -20 3 -5 -1 -10 -9 -10 -9 0 -16 -5 -16
-11 0 -6 -10 -19 -21 -28 -17 -13 -21 -28 -21 -69 0 -29 -4 -55 -9 -58 -5 -3
-9 -14 -9 -25 0 -16 3 -18 19 -9 25 13 44 13 36 0 -3 -5 -1 -10 5 -10 15 0 25
31 12 39 -14 9 -4 48 14 55 8 3 14 12 14 21 0 8 5 15 10 15 6 0 10 15 10 34 0
18 7 39 16 47 14 12 14 14 -2 26 -21 16 -41 17 -49 3z"/>
<path d="M3854 756 c-10 -25 0 -38 13 -17 8 13 9 22 3 26 -6 4 -13 -1 -16 -9z"/>
<path d="M9740 618 c-29 -43 -31 -58 -10 -58 13 0 20 7 20 19 0 11 5 23 10 26
12 7 14 35 2 35 -4 0 -14 -10 -22 -22z"/>
<path d="M9630 620 c0 -5 5 -10 10 -10 6 0 10 5 10 10 0 6 -4 10 -10 10 -5 0
-10 -4 -10 -10z"/>
<path d="M2137 603 c-12 -11 -7 -33 7 -33 12 0 26 20 26 36 0 7 -26 5 -33 -3z"/>
<path d="M9552 553 c-8 -14 -9 -24 -2 -28 12 -7 24 18 18 37 -3 8 -9 5 -16 -9z"/>
<path d="M3730 510 c0 -5 5 -10 10 -10 6 0 10 5 10 10 0 6 -4 10 -10 10 -5 0
-10 -4 -10 -10z"/>
<path d="M9980 491 c0 -6 5 -13 10 -16 6 -3 10 1 10 9 0 9 -4 16 -10 16 -5 0
-10 -4 -10 -9z"/>
<path d="M9790 479 c0 -5 5 -7 10 -4 6 3 10 8 10 11 0 2 -4 4 -10 4 -5 0 -10
-5 -10 -11z"/>
<path d="M7370 457 c0 -21 32 -44 68 -49 27 -4 32 -2 32 17 0 11 -5 26 -12 33
-17 17 -88 16 -88 -1z"/>
<path d="M7498 448 c15 -15 16 -48 2 -48 -5 0 -10 -4 -10 -10 0 -5 8 -10 17
-10 9 0 24 -7 34 -16 17 -15 19 -14 35 25 20 50 42 53 73 10 23 -31 23 -32 5
-42 -11 -6 -23 -11 -29 -12 -17 0 -21 -18 -5 -25 8 -4 30 -14 49 -24 24 -12
37 -14 45 -6 14 14 26 12 26 -5 0 -8 7 -15 15 -15 16 0 37 63 28 86 -3 8 0 14
6 14 6 0 11 6 11 14 0 14 -54 31 -205 62 -89 18 -113 18 -97 2z"/>
<path d="M3895 430 c-3 -5 -1 -10 4 -10 6 0 11 5 11 10 0 6 -2 10 -4 10 -3 0
-8 -4 -11 -10z"/>
<path d="M6610 420 c0 -5 5 -10 11 -10 5 0 7 5 4 10 -3 6 -8 10 -11 10 -2 0
-4 -4 -4 -10z"/>
<path d="M9469 414 c-12 -14 -11 -16 5 -13 11 2 21 10 24 17 5 17 -13 15 -29
-4z"/>
<path d="M9506 393 c-11 -11 -6 -23 8 -23 8 0 17 4 20 9 7 10 -19 23 -28 14z"/>
<path d="M7319 373 c-1 -10 -1 -22 0 -27 1 -4 -5 -19 -13 -31 -21 -32 -1 -59
37 -50 26 7 38 25 17 25 -5 0 -10 5 -10 10 0 6 8 10 19 10 10 0 26 12 36 26
22 34 5 54 -46 54 -30 0 -39 -4 -40 -17z m69 -21 c3 -9 -2 -13 -14 -10 -9 1
-19 9 -22 16 -3 9 2 13 14 10 9 -1 19 -9 22 -16z"/>
<path d="M7198 358 c-8 -13 -20 -33 -27 -45 -10 -19 -9 -22 4 -17 8 4 15 9 15
13 0 4 10 7 22 7 15 -1 23 6 25 19 1 11 0 14 -3 8 -3 -7 -12 -13 -20 -13 -12
0 -12 4 -4 21 16 29 6 35 -12 7z"/>
<path d="M7635 370 c3 -5 8 -10 11 -10 2 0 4 5 4 10 0 6 -5 10 -11 10 -5 0 -7
-4 -4 -10z"/>
<path d="M3610 358 c0 -7 7 -22 15 -32 11 -15 15 -16 19 -5 2 8 7 22 10 32 4
13 0 17 -19 17 -14 0 -25 -6 -25 -12z"/>
<path d="M6860 335 c-13 -14 -27 -25 -32 -25 -4 0 -46 -25 -93 -55 -47 -30
-85 -52 -85 -49 0 3 -7 -2 -16 -10 -8 -9 -22 -16 -30 -16 -8 0 -14 -4 -14 -8
0 -15 -70 -34 -84 -23 -8 7 -21 4 -45 -10 -27 -16 -36 -18 -48 -7 -14 11 -15
10 -9 -8 4 -14 -2 -29 -24 -51 l-30 -31 42 11 c24 6 62 21 85 34 24 13 71 38
105 56 35 17 77 42 95 55 17 12 34 22 38 22 4 0 24 13 44 29 21 17 50 36 67
43 28 12 74 51 74 63 0 12 -18 3 -40 -20z"/>
<path d="M7904 330 c4 -22 2 -30 -9 -30 -8 0 -15 7 -15 15 0 8 -4 15 -10 15
-12 0 -12 -13 -1 -63 6 -23 5 -39 -1 -43 -5 -3 6 -17 24 -30 50 -36 58 -44 58
-59 0 -21 -23 -19 -50 5 -26 23 -52 27 -44 7 7 -19 -23 -84 -43 -96 -17 -10
-16 -10 3 -11 11 0 30 -9 42 -20 14 -13 35 -20 61 -20 38 0 39 1 36 30 -2 17
2 36 9 42 7 7 11 20 8 30 -6 25 34 24 48 -1 14 -27 13 -31 -10 -31 -15 0 -20
-7 -20 -25 0 -14 -4 -25 -10 -25 -5 0 -10 -4 -10 -10 0 -13 127 -13 135 0 4 7
12 7 25 0 10 -5 75 -10 143 -10 l125 0 6 31 c15 77 8 104 -36 143 -51 45 -128
85 -223 117 -38 13 -81 29 -95 36 -14 7 -35 13 -47 13 -12 0 -25 5 -28 10 -3
6 -22 10 -42 10 -34 0 -35 -1 -29 -30z m56 -15 c-7 -9 -15 -13 -17 -11 -7 7 7
26 19 26 6 0 6 -6 -2 -15z m120 -266 c0 -12 -27 -11 -35 1 -11 17 5 32 21 19
8 -6 14 -15 14 -20z"/>
<path d="M7527 332 c-9 -2 -15 -8 -12 -13 4 -5 2 -9 -4 -9 -5 0 -13 5 -16 10
-10 16 -26 0 -20 -20 3 -10 0 -20 -8 -23 -8 -3 -17 -15 -20 -26 -3 -12 -1 -19
4 -15 5 3 9 -3 9 -12 0 -14 3 -15 12 -6 17 17 25 15 31 -8 6 -24 29 -26 47 -5
7 8 21 15 32 15 10 0 29 7 43 16 22 14 25 14 45 -6 l21 -21 -25 -24 c-14 -13
-26 -28 -26 -33 0 -16 34 -40 67 -47 30 -6 33 -4 38 22 3 15 9 39 14 53 4 14
5 33 2 43 -6 15 -9 15 -34 2 -26 -13 -28 -13 -39 11 -6 13 -23 27 -37 31 -14
3 -29 11 -33 17 -7 11 -11 12 -43 15 -9 0 -19 9 -23 19 -4 10 -15 16 -25 14z"/>
<path d="M3592 314 c-6 -11 -11 -34 -12 -50 -4 -81 -3 -112 4 -148 7 -33 6
-38 -6 -33 -12 4 -10 -4 6 -39 20 -41 23 -44 64 -44 47 0 51 10 32 80 -5 19
-11 77 -13 128 -4 86 -14 124 -24 94 -3 -8 -10 -5 -22 10 -18 22 -18 22 -29 2z"/>
<path d="M3196 293 c-3 -10 -11 -26 -18 -36 -10 -13 -10 -19 -1 -25 6 -4 14
-24 18 -45 8 -39 14 -44 33 -25 7 7 12 10 13 7 0 -2 2 -12 4 -22 3 -18 -29
-25 -39 -8 -4 5 -19 3 -36 -5 -16 -9 -34 -13 -40 -9 -5 3 -10 1 -10 -4 0 -6
-6 -11 -12 -11 -21 0 -136 -109 -116 -110 9 0 20 4 23 10 3 5 15 15 26 21 19
10 20 9 9 -10 -11 -21 -9 -21 128 -21 l138 0 13 53 c7 28 24 85 37 126 22 70
23 75 6 87 -9 8 -29 11 -43 8 -18 -3 -28 0 -32 10 -7 18 -42 22 -52 6 -10 -16
-28 -12 -21 5 3 9 0 15 -8 15 -8 0 -16 -8 -20 -17z"/>
<path d="M9730 299 c0 -5 5 -7 10 -4 6 3 10 8 10 11 0 2 -4 4 -10 4 -5 0 -10
-5 -10 -11z"/>
<path d="M7150 262 c0 -10 -15 -39 -34 -63 -18 -25 -42 -61 -53 -80 -10 -20
-34 -54 -52 -77 l-33 -42 377 0 c248 0 374 3 370 10 -3 6 -14 10 -24 10 -22 0
-53 33 -49 52 3 13 -3 18 -23 18 -8 0 -7 -5 1 -15 11 -13 10 -14 -6 -8 -10 3
-28 12 -39 19 -11 6 -32 14 -46 18 -14 3 -41 20 -60 38 -19 18 -43 34 -54 36
-11 2 -30 10 -42 18 -12 8 -34 14 -49 14 -18 0 -28 6 -31 20 -4 16 -8 18 -19
9 -17 -14 -97 5 -120 28 -12 12 -14 12 -14 -5z"/>
<path d="M9715 269 c-10 -15 3 -25 16 -12 7 7 7 13 1 17 -6 3 -14 1 -17 -5z"/>
<path d="M7830 230 c0 -5 5 -10 10 -10 6 0 10 5 10 10 0 6 -4 10 -10 10 -5 0
-10 -4 -10 -10z"/>
<path d="M6506 211 c-4 -5 -2 -12 3 -15 5 -4 12 -2 15 3 4 5 2 12 -3 15 -5 4
-12 2 -15 -3z"/>
<path d="M10217 69 c-21 -65 -21 -69 3 -69 18 0 20 7 20 60 0 33 -2 60 -3 60
-2 0 -11 -23 -20 -51z"/>
<path d="M3372 77 c-14 -39 -16 -81 -3 -73 5 3 12 22 15 42 4 19 10 42 13 50
3 8 1 14 -4 14 -5 0 -14 -15 -21 -33z"/>
<path d="M9649 63 c-18 -4 -29 -30 -22 -50 7 -19 48 -16 67 5 15 18 15 20 -2
35 -10 10 -20 16 -23 16 -2 -1 -11 -3 -20 -6z"/>
<path d="M3920 15 c-10 -12 -10 -15 3 -15 19 0 31 16 18 24 -5 3 -14 -1 -21
-9z"/>
</g>
</svg>
